<?xml version="1.0" encoding="UTF-8"?>
<svg width="646px" height="203px" viewBox="0 0 646 203" version="1.1" xmlns="http://www.w3.org/2000/svg" xmlns:xlink="http://www.w3.org/1999/xlink">
    <title>3084F107-1988-4317-A7B0-709188B15186</title>
    <g id="Page-1" stroke="none" stroke-width="1" fill="none" fill-rule="evenodd">
        <g id="Aecc-Uikit" transform="translate(-525.000000, -382.000000)" fill-rule="nonzero">
            <g id="CC_Logo_transicion_color_pos.rgb" transform="translate(525.000000, 382.000000)">
                <polygon id="Path" fill="#232323" points="514.630463 150.153939 510.052932 148.67352 512.936636 141.916914 519.613952 141.916914"></polygon>
                <path d="M174.339336,111.256095 C166.934095,104.099565 157.135099,99.988069 147.441092,99.9740366 L147.3641,99.9740366 C132.224652,99.9740366 124.203474,106.990242 117.764134,112.603207 C112.388685,117.304064 108.840048,120.41926 101.056846,120.41926 L101.01485,120.41926 C99.1191741,120.417474 97.2335346,120.143395 95.4154241,119.60538 C89.2514889,117.539236 84.5850071,112.434533 83.0686894,106.099184 C83.0056958,105.839584 82.9427023,105.579985 82.886708,105.313369 C82.8307137,105.046753 82.7887181,104.702959 82.7467224,104.394246 C82.7047267,104.085533 82.662731,103.790852 82.6277345,103.489156 C82.5717403,102.913827 82.5367439,102.331482 82.5367439,101.74212 C82.5370279,99.3041913 83.0125573,96.8898113 83.9366004,94.6347041 C84.1535782,94.1225211 84.3775552,93.6243705 84.6365287,93.1332361 C84.81851,92.7824258 85.0074907,92.4316155 85.2104699,92.1158863 C85.4834419,91.6458005 85.7844111,91.1967634 86.0993788,90.7547424 C90.804497,84.1809009 99.1738317,81.3561298 106.887248,83.7385368 C111.829938,84.7579575 116.73677,81.8479199 118.225119,77.0145189 C119.713467,72.1811179 117.296611,67.0049791 112.640659,65.0543812 C109.060353,63.8944604 105.323384,63.293396 101.560794,63.272265 C98.0276442,63.2603663 94.5048528,63.6558728 91.0618702,64.4509875 C82.4177561,66.6821409 74.8095358,72.5476888 69.6930601,80.1041423 C69.6230673,80.2023691 69.5530744,80.2935798 69.4900809,80.3918067 C68.825149,81.3881079 68.2022129,82.4054577 67.6282717,83.4578885 L67.5442803,83.6332937 C66.9843377,84.6646759 66.4803893,85.7381554 66.0184367,86.7976024 C66.0184367,86.8396997 65.9834403,86.8817969 65.9624424,86.9309103 C64.0116717,91.402775 62.9808821,96.2231664 62.931753,101.103646 C62.9362491,102.596478 63.0156747,104.088138 63.1697286,105.572969 C63.204725,105.972892 63.2817171,106.3658 63.3377114,106.765724 C63.4566992,107.691863 63.575687,108.610986 63.7506691,109.50906 L63.7926648,109.663417 C66.6413728,123.773006 76.52436,134.591995 89.8859907,138.493005 C93.5918473,139.65754 97.4531364,140.249017 101.336817,140.247057 C113.550566,140.247057 124.616432,132.732701 130.670811,127.428449 C136.04626,122.720575 139.601896,119.60538 147.406096,119.60538 L147.448092,119.60538 C152.130612,119.60538 156.995113,121.710242 160.795724,125.39375 C164.620657,128.952671 166.821784,133.928595 166.8851,139.159545 C166.8851,156.79127 140.602793,183.410754 101.091842,183.410754 L100.965855,183.410754 C56.667395,183.340592 20.1801342,147.080841 19.6271909,102.570033 C19.3502097,80.6730497 27.832821,59.57688 43.1806091,43.9929163 C58.5283972,28.4089526 79.4628965,19.6353338 101.30882,19.631466 L101.434807,19.631466 C123.098657,19.6085861 143.873221,28.2653746 159.136894,43.6760026 C163.008213,47.1649821 168.925379,47.0104656 172.610231,43.3241699 C176.295083,39.6378743 176.461199,33.7067272 172.988474,29.8189965 C154.058084,10.6955067 128.28252,-0.0418558365 101.40681,0 L101.252826,0 C74.1751622,0 48.2261404,10.8744481 29.2020432,30.189757 C10.1779461,49.5050658 -0.336188623,75.6536144 0.00820142158,102.794551 C0.708129693,157.969992 45.9444939,202.922822 100.874865,203 L101.035848,203 C149.855845,203 186.378102,169.322213 186.427097,139.152529 C186.39141,128.581463 182.023282,118.489674 174.346335,111.242063" id="Path" fill="#24C347"></path>
                <path d="M227.757676,168.501317 C227.748514,166.487727 228.092031,164.488138 228.772758,162.593672 C229.418397,160.777502 230.417649,159.108055 231.712456,157.682328 C233.023141,156.261969 234.606234,155.121295 236.366979,154.328582 C238.300692,153.46999 240.397735,153.043821 242.51235,153.079697 C245.269881,152.999846 247.99033,153.731606 250.337548,155.184559 C252.439957,156.524497 254.117697,158.437511 255.174052,160.699296 L248.174769,162.972547 C246.493573,159.908492 242.715446,158.697431 239.572651,160.215178 C238.68008,160.651776 237.888529,161.270774 237.248889,162.032375 C236.558196,162.860706 236.030888,163.813107 235.695048,164.838858 C235.311364,166.011471 235.122204,167.239242 235.135106,168.473252 C235.120116,169.709671 235.31904,170.939337 235.723045,172.107647 C236.076765,173.140497 236.609922,174.102499 237.297884,174.94921 C237.930294,175.725453 238.723096,176.355005 239.621646,176.794472 C240.502247,177.233081 241.473052,177.458948 242.456355,177.453995 C243.714695,177.458906 244.948269,177.103518 246.011991,176.429629 C247.005796,175.850161 247.797571,174.978083 248.279758,173.93186 L255.279041,176.198095 C254.29467,178.497063 252.63432,180.440453 250.519529,181.768962 C248.133662,183.25748 245.363464,184.009048 242.554345,183.929953 C240.440121,183.961596 238.343974,183.535609 236.408975,182.681069 C234.646117,181.882999 233.064579,180.732179 231.761451,179.299257 C230.464947,177.856468 229.45741,176.17715 228.793755,174.352832 C228.10366,172.479709 227.752854,170.49809 227.757676,168.501317 Z" id="Path" fill="#232323"></path>
                <path d="M272.595267,183.958018 C270.481042,183.989661 268.384895,183.563674 266.449896,182.709133 C264.692199,181.916157 263.118846,180.764354 261.83037,179.327322 C260.554323,177.892724 259.565762,176.225258 258.918668,174.415978 C258.237177,172.541157 257.893534,170.559839 257.903772,168.564463 C257.890906,166.550581 258.234528,164.550378 258.918668,162.656818 C259.565126,160.847237 260.553756,159.179656 261.83037,157.745474 C263.117034,156.306432 264.690841,155.154297 266.449896,154.363663 C268.384018,153.506358 270.480776,153.080248 272.595267,153.114778 C274.703259,153.07722 276.793822,153.503529 278.719639,154.363663 C280.468229,155.158379 282.032087,156.310212 283.311168,157.745474 C284.587783,159.179656 285.576412,160.847237 286.22287,162.656818 C286.90701,164.550378 287.250632,166.550581 287.237766,168.564463 C287.248005,170.559839 286.904362,172.541157 286.22287,174.415978 C285.577515,176.219941 284.599256,177.88605 283.339166,179.327322 C282.062584,180.768372 280.495135,181.921092 278.740637,182.709133 C276.805638,183.563674 274.709491,183.989661 272.595267,183.958018 Z M265.274017,168.522366 C265.259452,169.749609 265.448683,170.97073 265.83396,172.135711 C266.181246,173.15641 266.70744,174.106799 267.3878,174.942194 C268.02021,175.718437 268.813012,176.347989 269.711562,176.787456 C271.536392,177.666909 273.66114,177.666909 275.48597,176.787456 C276.38452,176.347989 277.177322,175.718437 277.809732,174.942194 C278.496365,174.09915 279.020869,173.135631 279.356574,172.10063 C279.74416,170.928958 279.933421,169.700529 279.916516,168.466236 C279.929669,167.250567 279.740425,166.041214 279.356574,164.887971 C279.013921,163.866665 278.489879,162.915878 277.809732,162.081489 C277.175466,161.307137 276.383108,160.677938 275.48597,160.236227 C274.585007,159.799569 273.595982,159.57632 272.595267,159.583541 C271.591782,159.582155 270.602674,159.822811 269.711562,160.28534 C268.817622,160.744374 268.02682,161.381888 267.3878,162.158667 C266.704811,163.005295 266.17856,163.967667 265.83396,165.00023 C265.455753,166.147599 265.266626,167.349088 265.274017,168.557447 L265.274017,168.522366 Z" id="Shape" fill="#232323"></path>
                <path d="M318.076606,183.389705 L310.916339,183.389705 L310.916339,166.68412 C310.916339,164.29861 310.52438,162.556252 309.74046,161.457046 C309.006162,160.384364 307.775793,159.762398 306.478794,159.808238 C305.726069,159.817578 304.982214,159.972427 304.288019,160.264292 C303.526082,160.577849 302.81763,161.008682 302.188234,161.541241 C301.5068,162.113647 300.904256,162.774273 300.396418,163.505779 C299.85782,164.26072 299.459483,165.106856 299.220538,166.003548 L299.220538,183.389705 L292.053273,183.389705 L292.053273,153.619945 L298.513611,153.619945 L298.513611,159.127666 C299.543595,157.240355 301.106873,155.700147 303.00715,154.70044 C305.046661,153.616162 307.327215,153.068182 309.635471,153.107762 C311.126249,153.041936 312.605532,153.39685 313.905033,154.132128 C314.978354,154.781363 315.863839,155.700431 316.47377,156.798286 C317.100729,157.969233 317.524396,159.238565 317.726642,160.551956 C317.959541,161.959554 318.076606,163.383965 318.076606,164.810793 L318.076606,183.389705 Z" id="Path" fill="#232323"></path>
                <polygon id="Path" fill="#232323" points="326.629729 183.389705 326.629729 160.474778 322.43016 160.474778 322.43016 153.605912 326.629729 153.605912 326.629729 143.95863 333.999974 143.95863 333.999974 153.619945 340.467311 153.619945 340.467311 160.474778 333.999974 160.474778 333.999974 183.375673"></polygon>
                <path d="M361.255181,160.208162 C359.238915,160.209448 357.248725,160.665038 355.431778,161.541241 C353.781847,162.334273 352.472298,163.696807 351.743156,165.379105 L351.743156,183.389705 L344.582889,183.389705 L344.582889,153.619945 L351.169214,153.619945 L351.169214,159.983643 C351.647756,158.99865 352.239727,158.073224 352.933034,157.226274 C353.586476,156.448492 354.320897,155.742871 355.123809,155.121413 C355.849887,154.547618 356.650485,154.07554 357.503565,153.718172 C358.240043,153.409006 359.028947,153.24465 359.827327,153.234053 L360.709237,153.234053 C360.89727,153.234053 361.084824,153.253085 361.269179,153.290183 L361.255181,160.208162 Z" id="Path" fill="#232323"></path>
                <path d="M376.807587,183.958018 C374.96861,183.977315 373.150201,183.569045 371.495131,182.765263 C369.879574,181.97423 368.448584,180.850578 367.295562,179.467646 C366.089052,178.011342 365.156965,176.347121 364.544844,174.556302 C363.875374,172.608765 363.541637,170.56117 363.557945,168.501317 C363.542938,166.446134 363.866939,164.402599 364.516846,162.453348 C365.104414,160.673287 365.99999,159.010804 367.162575,157.542004 C368.24884,156.188216 369.605371,155.076948 371.145167,154.279468 C372.679603,153.480947 374.385836,153.071425 376.114658,153.086713 C378.091663,153.0558 380.035683,153.59657 381.714084,154.644311 C383.346955,155.680566 384.675556,157.133453 385.56369,158.854034 L385.56369,153.94269 L392.723956,153.94269 L392.723956,183.319543 L385.577688,183.319543 L385.577688,178.485378 C384.74082,180.08712 383.51875,181.454422 382.022053,182.463566 C380.470214,183.469079 378.65513,183.989277 376.807587,183.958018 Z M385.577688,165.435235 C384.995493,163.796814 383.987981,162.343652 382.658987,161.225512 C381.467768,160.184359 379.941859,159.608891 378.361428,159.604768 C377.322551,159.595573 376.299383,159.859241 375.393732,160.369535 C374.478716,160.884644 373.678411,161.581828 373.041973,162.418267 C372.371666,163.289508 371.855555,164.269642 371.516129,165.31596 C371.158795,166.404866 370.979169,167.544457 370.984048,168.690754 C370.978238,169.86002 371.167498,171.022042 371.544126,172.128695 C371.892229,173.153402 372.426129,174.104853 373.118965,174.935177 C373.787742,175.727205 374.618381,176.366047 375.554715,176.808504 C376.512421,177.273477 377.563283,177.513432 378.6274,177.510125 C380.124384,177.544843 381.587623,177.061698 382.770976,176.141965 C383.976603,175.16831 384.935863,173.923064 385.570689,172.50757 L385.577688,165.435235 Z" id="Shape" fill="#232323"></path>
                <path d="M425.011647,183.958018 C422.91852,183.987867 420.842936,183.571747 418.922271,182.737198 C417.159794,181.963695 415.577096,180.831146 414.274747,179.411517 C412.97538,177.984134 411.967206,176.315671 411.307051,174.500173 C410.610064,172.626284 410.256752,170.641527 410.264158,168.641641 C410.249613,166.60018 410.593138,164.572044 411.279054,162.649801 C411.930673,160.83647 412.929258,159.168138 414.218753,157.738458 C415.526283,156.298187 417.118557,155.146492 418.894274,154.356646 C420.838484,153.500047 422.944189,153.074059 425.067641,153.107762 C427.173365,153.07032 429.261624,153.496645 431.185014,154.356646 C432.928929,155.150309 434.49351,156.291371 435.783543,157.710393 C437.063632,159.137079 438.044322,160.807328 438.667248,162.621737 C439.325642,164.482422 439.659486,166.442862 439.654209,168.417122 C439.654209,168.908257 439.654209,169.385359 439.654209,169.820364 C439.643293,170.202425 439.598791,170.582778 439.52116,170.956989 L417.851381,170.956989 C417.934236,172.039362 418.206708,173.098634 418.656298,174.086217 C419.059689,174.957682 419.619625,175.747292 420.308129,176.415597 C421.652206,177.691685 423.433377,178.402361 425.284619,178.401183 C426.703298,178.400467 428.095716,178.017596 429.316206,177.292623 C430.496082,176.653327 431.413145,175.617274 431.90594,174.366865 L438.051311,176.184062 C436.989111,178.500467 435.270615,180.452479 433.109817,181.797027 C430.678261,183.293215 427.863461,184.044342 425.011647,183.958018 L425.011647,183.958018 Z M432.283902,166.003548 C432.201832,163.987063 431.373385,162.073526 429.96014,160.63615 C427.916876,158.649693 424.892428,158.068146 422.260929,159.155731 C421.432204,159.512241 420.6791,160.024257 420.042156,160.664215 C419.38059,161.338481 418.84695,162.127799 418.467318,162.993596 C418.051796,163.945381 417.814536,164.965687 417.767389,166.003548 L432.283902,166.003548 Z" id="Shape" fill="#232323"></path>
                <polygon id="Path" fill="#232323" points="444.147686 141.916914 451.307952 141.916914 451.307952 183.389705 444.147686 183.389705"></polygon>
                <path d="M469.051134,168.501317 C469.038268,166.487435 469.38189,164.487233 470.06603,162.593672 C470.708941,160.776212 471.708501,159.106249 473.005729,157.682328 C474.312563,156.260698 475.893656,155.11975 477.653252,154.328582 C479.58717,153.470635 481.68407,153.044495 483.798622,153.079697 C486.55847,152.998879 489.281432,153.730661 491.63082,155.184559 C493.731707,156.526279 495.409012,158.438796 496.467324,160.699296 L489.468041,162.972547 C487.786845,159.908492 484.008718,158.697431 480.865923,160.215178 C479.974443,160.653524 479.183228,161.272259 478.542161,162.032375 C477.853679,162.861082 477.328736,163.813503 476.99532,164.838858 C476.60587,166.010249 476.414255,167.238601 476.428378,168.473252 C476.413388,169.709671 476.612312,170.939337 477.016317,172.107647 C477.369419,173.142223 477.905224,174.104725 478.598155,174.94921 C479.230565,175.725453 480.023367,176.355005 480.921917,176.794472 C481.791937,177.22778 482.750145,177.453503 483.72163,177.453995 C484.980241,177.460867 486.214353,177.105324 487.277266,176.429629 C488.273672,175.851283 489.067995,174.979089 489.552033,173.93186 L496.551316,176.198095 C495.569245,178.498497 493.908363,180.442511 491.791803,181.768962 C489.408943,183.258458 486.640669,184.010164 483.833619,183.929953 C481.719395,183.961596 479.623247,183.535609 477.688249,182.681069 C475.923281,181.883134 474.339426,180.732361 473.033726,179.299257 C471.739442,177.856085 470.73427,176.176749 470.073029,174.352832 C469.384328,172.479746 469.038159,170.497536 469.051134,168.501317 L469.051134,168.501317 Z" id="Path" fill="#232323"></path>
                <path d="M512.495682,183.958018 C510.656704,183.977315 508.838295,183.569045 507.183226,182.765263 C505.567668,181.97423 504.136679,180.850578 502.983656,179.467646 C501.777147,178.011342 500.845059,176.347121 500.232938,174.556302 C499.563468,172.608765 499.229732,170.56117 499.246039,168.501317 C499.231032,166.446134 499.555034,164.402599 500.204941,162.453348 C500.792509,160.673287 501.688084,159.010804 502.85067,157.542004 C503.938542,156.189816 505.29471,155.078845 506.833262,154.279468 C508.367998,153.481753 510.074028,153.07228 511.802753,153.086713 C513.779758,153.0558 515.723778,153.59657 517.402179,154.644311 C519.03505,155.680566 520.363651,157.133453 521.251784,158.854034 L521.251784,153.94269 L528.41205,153.94269 L528.41205,183.319543 L521.251784,183.319543 L521.251784,178.485378 C520.414916,180.08712 519.192846,181.454422 517.696149,182.463566 C516.14882,183.467569 514.338645,183.987757 512.495682,183.958018 Z M521.251784,165.435235 C520.669589,163.796814 519.662077,162.343652 518.333083,161.225512 C517.141864,160.184359 515.615955,159.608891 514.035524,159.604768 C512.996647,159.595573 511.973479,159.859241 511.067828,160.369535 C510.152812,160.884644 509.352508,161.581828 508.716069,162.418267 C508.045762,163.289508 507.529651,164.269642 507.190225,165.31596 C506.836288,166.405686 506.656749,167.544726 506.658144,168.690754 C506.652334,169.86002 506.841594,171.022042 507.218222,172.128695 C507.565898,173.155065 508.102445,174.107001 508.80006,174.935177 C509.464826,175.728488 510.293499,176.367653 511.228811,176.808504 C512.186517,177.273477 513.237379,177.513432 514.301496,177.510125 C515.79848,177.544843 517.261719,177.061698 518.445072,176.141965 C519.650699,175.16831 520.609959,173.923064 521.244785,172.50757 L521.251784,165.435235 Z" id="Shape" fill="#232323"></path>
                <path d="M560.916719,183.389705 L553.756453,183.389705 L553.756453,166.68412 C553.756453,164.29861 553.364493,162.556252 552.580574,161.457046 C551.846276,160.384364 550.615907,159.762398 549.318908,159.808238 C548.566183,159.817578 547.822327,159.972427 547.128132,160.264292 C546.367263,160.579963 545.659122,161.010607 545.028348,161.541241 C544.350956,162.115748 543.750985,162.776133 543.243531,163.505779 C542.704933,164.26072 542.306596,165.106856 542.067651,166.003548 L542.067651,183.389705 L534.893386,183.389705 L534.893386,153.619945 L541.353724,153.619945 L541.353724,159.127666 C542.383709,157.240355 543.946986,155.700147 545.847264,154.70044 C547.886775,153.616162 550.167329,153.068182 552.475584,153.107762 C553.966363,153.041936 555.445646,153.39685 556.745147,154.132128 C557.818468,154.781363 558.703953,155.700431 559.313884,156.798286 C559.940842,157.969233 560.36451,159.238565 560.566755,160.551956 C560.799654,161.959554 560.916719,163.383965 560.916719,164.810793 L560.916719,183.389705 Z" id="Path" fill="#232323"></path>
                <path d="M565.40326,168.501317 C565.393912,166.487727 565.737429,164.488138 566.418156,162.593672 C567.063795,160.777502 568.063047,159.108055 569.357854,157.682328 C570.668539,156.261969 572.251632,155.121295 574.012377,154.328582 C575.94609,153.46999 578.043133,153.043821 580.157748,153.079697 C582.915279,152.999846 585.635728,153.731606 587.982946,155.184559 C590.085355,156.524497 591.763095,158.437511 592.81945,160.699296 L585.820167,162.972547 C584.133039,159.931883 580.376319,158.732974 577.246046,160.236227 C576.353475,160.672824 575.561924,161.291823 574.922284,162.053424 C574.231591,162.881755 573.704283,163.834156 573.368443,164.859906 C572.984759,166.032519 572.795599,167.260291 572.808501,168.494301 C572.793511,169.730719 572.992435,170.960386 573.39644,172.128695 C573.75016,173.161545 574.283317,174.123548 574.971279,174.970259 C575.588811,175.743506 576.364483,176.375114 577.246046,176.822537 C578.126647,177.261146 579.097452,177.487013 580.080755,177.48206 C581.339258,177.488145 582.573153,177.132664 583.636391,176.457694 C584.630196,175.878226 585.421971,175.006148 585.904159,173.959925 L592.903441,176.226159 C591.91907,178.525127 590.25872,180.468517 588.143929,181.797027 C585.758062,183.285545 582.987864,184.037113 580.178745,183.958018 C578.064521,183.989661 575.968374,183.563674 574.033375,182.709133 C572.270517,181.911064 570.688979,180.760244 569.385851,179.327322 C568.09186,177.882669 567.08463,176.203863 566.418156,174.380897 C565.731925,172.497618 565.388185,170.506237 565.40326,168.501317 L565.40326,168.501317 Z" id="Path" fill="#232323"></path>
                <path d="M610.296659,183.958018 C608.203414,183.989154 606.127563,183.57298 604.207283,182.737198 C602.444108,181.961338 600.859574,180.82918 599.55276,179.411517 C598.257916,177.982023 597.252396,176.314019 596.592063,174.500173 C595.891769,172.627192 595.538348,170.641823 595.54917,168.641641 C595.534625,166.60018 595.87815,164.572044 596.564066,162.649801 C597.210381,160.833952 598.209557,159.164631 599.503765,157.738458 C600.811295,156.298187 602.403569,155.146492 604.179286,154.356646 C606.123495,153.500047 608.229201,153.074059 610.352653,153.107762 C612.458314,153.071004 614.546426,153.4973 616.470026,154.356646 C618.213941,155.150309 619.778522,156.291371 621.068555,157.710393 C622.346188,159.138881 623.32657,160.808605 623.952259,162.621737 C624.610654,164.482422 624.944498,166.442862 624.939221,168.417122 C624.939221,168.908257 624.939221,169.385359 624.939221,169.820364 C624.931806,170.202672 624.887266,170.58335 624.806172,170.956989 L603.143392,170.956989 C603.224035,172.038933 603.494133,173.098187 603.94131,174.086217 C604.347209,174.957999 604.909493,175.747575 605.60014,176.415597 C606.262788,177.051383 607.042538,177.551819 607.895905,177.889 C608.746177,178.229876 609.653884,178.403757 610.569631,178.401183 C611.990685,178.401726 613.385684,178.018809 614.608217,177.292623 C615.786586,176.651422 616.703089,175.616 617.197952,174.366865 L623.343322,176.184062 C622.27903,178.499101 620.561014,180.450568 618.401828,181.797027 C615.968263,183.29454 613.150836,184.045719 610.296659,183.958018 L610.296659,183.958018 Z M617.568914,166.003548 C617.484294,163.986259 616.653397,162.072825 615.238152,160.63615 C613.916146,159.308794 612.111431,158.579082 610.240665,158.615483 C609.315076,158.609549 608.398053,158.793397 607.545941,159.155731 C606.717216,159.512241 605.964112,160.024257 605.327168,160.664215 C604.663387,161.336659 604.129454,162.126412 603.75233,162.993596 C603.336808,163.945381 603.099548,164.965687 603.052401,166.003548 L617.568914,166.003548 Z" id="Shape" fill="#232323"></path>
                <path d="M646,160.208162 C643.981479,160.209354 641.988991,160.664922 640.169598,161.541241 C638.519667,162.334273 637.210118,163.696807 636.480976,165.379105 L636.480976,183.389705 L629.320709,183.389705 L629.320709,153.619945 L635.893036,153.619945 L635.893036,159.983643 C636.815123,158.060324 638.171498,156.378772 639.85463,155.072299 C640.577244,154.497155 641.375724,154.024936 642.227387,153.669058 C642.964071,153.360559 643.752844,153.196231 644.551148,153.18494 L645.433058,153.18494 C645.623388,153.185554 645.813227,153.204348 646,153.24107 L646,160.208162 Z" id="Path" fill="#232323"></path>
                <path d="M242.51235,122.846867 C240.416909,122.877284 238.338924,122.461161 236.415974,121.626047 C234.654506,120.850764 233.072151,119.71846 231.768451,118.300366 C230.468502,116.87342 229.460254,115.204835 228.800755,113.389022 C228.103853,111.517545 227.75053,109.535103 227.757601,107.537506 C227.746771,105.496326 228.090195,103.468787 228.772758,101.545667 C229.4211,99.7202823 230.419795,98.0398484 231.712456,96.5992417 C233.023095,95.1624657 234.614589,94.0113353 236.387977,93.2174306 C238.333441,92.36481 240.438276,91.9389978 242.561345,91.968546 C244.668942,91.9352819 246.75859,92.3614037 248.685717,93.2174306 C250.42752,94.0112304 251.989784,95.1523391 253.277246,96.5711769 C254.555796,97.9989928 255.536292,99.6689125 256.160951,101.482521 C256.82501,103.341923 257.161323,105.302952 257.154941,107.277907 C257.154941,107.776057 257.154941,108.246143 257.154941,108.681148 C257.143996,109.063209 257.099494,109.443563 257.021863,109.817773 L235.352083,109.817773 C235.43267,110.897474 235.702788,111.954433 236.150002,112.939985 C236.541013,113.819469 237.094337,114.616943 237.780834,115.290413 C238.443866,115.927452 239.223396,116.43013 240.076599,116.770833 C240.9275,117.10955 241.834788,117.283352 242.750325,117.283016 C244.169143,117.283335 245.561829,116.90039 246.781912,116.174455 C247.960671,115.531712 248.878962,114.497067 249.378646,113.248698 L255.524016,115.065895 C254.462045,117.384628 252.740536,119.337297 250.575523,120.678859 C248.155254,122.172031 245.353191,122.925443 242.51235,122.846867 Z M249.777605,104.892397 C249.695535,102.875912 248.867089,100.962375 247.453843,99.5249994 C246.128852,98.2029724 244.325504,97.4763447 242.456355,97.5113484 C241.528242,97.5026482 240.608377,97.6865884 239.754632,98.0515962 C238.926947,98.4030759 238.175647,98.913098 237.542859,99.5530643 C236.880584,100.228226 236.344784,101.017234 235.961021,101.882445 C235.550232,102.8358 235.313177,103.855225 235.261093,104.892397 L249.777605,104.892397 Z" id="Shape" fill="#919191"></path>
                <path d="M272.119315,122.846867 C269.770158,122.846536 267.43839,122.443126 265.225022,121.654112 C263.087502,120.926044 261.122047,119.765413 259.450614,118.244236 L262.12434,113.473216 C263.656269,114.662001 265.336252,115.64554 267.121828,116.398974 C268.653043,117.046363 270.296524,117.384914 271.958332,117.395275 C273.141153,117.458532 274.315231,117.160021 275.324987,116.539298 C276.127729,115.993133 276.591178,115.069304 276.549861,114.097659 C276.590455,113.098483 276.019141,112.175498 275.108009,111.768278 C273.590223,111.069773 272.016922,110.499481 270.404491,110.06334 C268.591677,109.537125 267.037836,109.024942 265.756967,108.533807 C264.646123,108.132182 263.60111,107.56703 262.656285,106.856934 C261.918292,106.288448 261.331671,105.54617 260.94846,104.695943 C260.571105,103.768091 260.38997,102.771828 260.416515,101.770185 C260.393485,100.362875 260.67527,98.967304 261.24243,97.6797374 C261.77691,96.4874143 262.570918,95.4301737 263.566192,94.5855907 C264.595952,93.7113809 265.784179,93.0443647 267.065833,92.6210531 C268.46934,92.1515799 269.939809,91.9145985 271.419387,91.9194325 C273.429084,91.9035348 275.426795,92.2309645 277.326782,92.8876689 C279.210877,93.5620305 280.932573,94.6257527 282.380264,96.0098804 L279.48956,100.612511 C278.242177,99.5785033 276.847997,98.7366627 275.352984,98.1147421 C274.089702,97.6017389 272.740384,97.3350331 271.377391,97.3289271 C270.306262,97.290969 269.247586,97.5690861 268.332703,98.1287745 C267.491506,98.6940755 267.020435,99.67069 267.10083,100.682673 C267.082069,101.136074 267.183502,101.586361 267.3948,101.987688 C267.625004,102.3667 267.947804,102.680622 268.332703,102.899794 C268.853899,103.203954 269.405116,103.453189 269.977535,103.643512 C270.677463,103.889079 271.538375,104.148679 272.567269,104.415295 C274.492072,104.94151 276.143903,105.474742 277.515762,106.000957 C278.719126,106.441675 279.852964,107.053679 280.882417,107.818154 C281.699667,108.441683 282.359045,109.249271 282.80722,110.1756 C283.236901,111.190827 283.444542,112.286572 283.416158,113.389022 C283.534935,116.041141 282.408204,118.596046 280.37147,120.292968 C278.360342,121.995567 275.609624,122.846867 272.119315,122.846867 Z" id="Path" fill="#919191"></path>
                <path d="M304.875958,122.846867 C302.842894,122.896266 300.839276,122.352713 299.10855,121.282253 C297.470376,120.252365 296.14029,118.797853 295.258944,117.07253 L295.258944,134.402558 L288.098678,134.402558 L288.098678,92.5087938 L294.349037,92.5087938 L294.349037,97.6236077 C295.32564,95.9394876 296.703627,94.5244187 298.359626,93.505095 C300.0692,92.4812754 302.030975,91.9586532 304.022046,91.9966108 C305.839291,91.9797537 307.634261,92.3983098 309.257509,93.2174306 C310.848876,94.0214278 312.259058,95.1437049 313.401085,96.5150472 C314.598029,97.9732663 315.520596,99.6374276 316.123806,101.426391 C316.79269,103.335492 317.128894,105.345726 317.117704,107.369117 C317.129713,109.429446 316.82276,111.479169 316.207797,113.445151 C315.653865,115.218586 314.793923,116.880886 313.667058,118.356495 C312.627095,119.720652 311.30717,120.845181 309.796454,121.654112 C308.279728,122.452946 306.589222,122.862734 304.875958,122.846867 L304.875958,122.846867 Z M302.475205,116.370909 C303.505265,116.390385 304.523582,116.149066 305.435901,115.669289 C306.344782,115.177976 307.139223,114.498796 307.766662,113.676686 C308.426243,112.803976 308.930596,111.823687 309.257509,110.778993 C309.616057,109.680537 309.797979,108.531894 309.796454,107.376134 C309.809294,106.181089 309.61022,104.993263 309.208514,103.868031 C308.843806,102.838984 308.290728,101.887198 307.577682,101.061548 C306.895335,100.2751 306.059149,99.6374891 305.120933,99.1882216 C304.161103,98.7222076 303.107728,98.4822255 302.041249,98.4865422 C301.325436,98.4912623 300.61554,98.6169805 299.941464,98.8584599 C299.230307,99.1031604 298.561899,99.4582971 297.960667,99.9108907 C297.35358,100.369627 296.805764,100.90227 296.329834,101.496553 C295.856097,102.094091 295.486899,102.767847 295.237946,103.489156 L295.237946,110.505361 C295.835232,112.141372 296.848601,113.592543 298.177645,114.715085 C299.360764,115.773954 300.889169,116.362839 302.475205,116.370909 L302.475205,116.370909 Z" id="Shape" fill="#919191"></path>
                <path d="M333.524023,122.846867 C331.68298,122.864456 329.862681,122.4563 328.204568,121.654112 C326.587089,120.866158 325.155498,119.742034 324.004998,118.356495 C322.794964,116.901453 321.860374,115.236999 321.247281,113.445151 C320.577799,111.50004 320.244051,109.454746 320.260382,107.397182 C320.243607,105.339009 320.57007,103.292494 321.226283,101.342197 C321.806388,99.5603325 322.700064,97.8969751 323.865012,96.4308527 C324.95391,95.0778534 326.309739,93.9647716 327.847604,93.1613009 C329.383525,92.366777 331.088756,91.957495 332.817095,91.968546 C334.7949,91.9389372 336.739193,92.4822194 338.416521,93.5331598 C340.051582,94.5667888 341.380793,96.0203431 342.266127,97.7428832 L342.266127,92.8315393 L349.426393,92.8315393 L349.426393,122.201376 L342.287125,122.201376 L342.287125,117.374227 C341.450256,118.975969 340.228186,120.343271 338.731489,121.352415 C337.182348,122.358149 335.369415,122.878429 333.524023,122.846867 L333.524023,122.846867 Z M342.287125,104.345133 C341.707498,102.707194 340.702355,101.253964 339.375423,100.135409 C338.181078,99.0948716 336.653248,98.519616 335.070864,98.5145413 C334.031397,98.5079373 333.008271,98.7740127 332.103168,99.2864484 C331.192774,99.8051428 330.393558,100.498995 329.751409,101.328164 C329.084739,102.200654 328.57112,103.180551 328.232565,104.225857 C327.872945,105.316809 327.690966,106.458703 327.69362,107.607668 C327.686577,108.777598 327.878297,109.94019 328.260562,111.045609 C328.604752,112.072064 329.139042,113.02421 329.835401,113.852091 C330.503939,114.641445 331.331688,115.279898 332.264152,115.725418 C333.221857,116.190391 334.272719,116.430346 335.336837,116.427039 C336.832724,116.462041 338.295319,115.981586 339.480412,115.065895 C340.684647,114.088031 341.64352,112.840886 342.280125,111.424484 L342.287125,104.345133 Z" id="Shape" fill="#919191"></path>
                <path d="M381.966058,122.278554 L374.777795,122.278554 L374.777795,105.572969 C374.777795,103.187459 374.385835,101.44744 373.601915,100.352912 C372.869414,99.2781704 371.637832,98.6555916 370.34025,98.7041034 C369.587235,98.7107596 368.842869,98.8657143 368.149474,99.1601567 C367.388354,99.4753322 366.68014,99.9060205 366.049689,100.437106 C365.368496,101.007111 364.765943,101.665387 364.257873,102.394628 C363.725977,103.153494 363.328221,103.998395 363.081994,104.892397 L363.081994,122.278554 L355.914728,122.278554 L355.914728,92.5087938 L362.368067,92.5087938 L362.368067,98.0305476 C363.393058,96.1401139 364.954429,94.5969438 366.854607,93.5963057 C368.895629,92.5160373 371.17514,91.9683075 373.482928,92.003627 C374.975519,91.9420865 376.455895,92.2966815 377.759489,93.027993 C378.834249,93.6762247 379.718226,94.5986547 380.321227,95.7011674 C380.9546,96.8674319 381.380903,98.1351885 381.581098,99.4478212 C381.81137,100.855648 381.926076,102.280034 381.924063,103.706658 L381.966058,122.278554 Z M372.936984,88.0815681 C372.217119,88.0938165 371.502419,87.9576951 370.837199,87.6816443 C370.233045,87.4331842 369.648159,87.1400341 369.087378,86.8046186 C368.569431,86.4888894 368.051484,86.1942087 367.540537,85.9275929 C367.037351,85.6636118 366.477634,85.5263543 365.909704,85.5276692 C365.411802,85.5021028 364.919496,85.6427494 364.509847,85.9275929 C364.191642,86.1706808 363.929106,86.4793085 363.739926,86.8326835 C363.576097,87.1236758 363.466965,87.4423505 363.417959,87.772855 C363.382963,88.0535032 363.361965,88.214876 363.361965,88.2569732 L359.40737,88.2569732 C359.448737,87.6689294 359.556754,87.0875181 359.729337,86.5239704 C359.962835,85.6657248 360.313801,84.8440368 360.77223,84.0823308 C361.272002,83.246667 361.925107,82.5134213 362.697033,81.9213395 C363.550649,81.2784278 364.597571,80.946761 365.664729,80.981168 C366.387734,80.9651357 367.105166,81.1113662 367.764514,81.4091565 C368.332576,81.6847061 368.88624,81.9891376 369.423344,82.3212632 C369.941291,82.6440087 370.452238,82.9457055 370.970185,83.2263538 C371.502077,83.5172377 372.100196,83.6647113 372.706007,83.6543423 C373.243778,83.68377 373.777274,83.5439408 374.231851,83.2544186 C374.580535,83.0206565 374.872361,82.7113404 375.085763,82.3493281 C375.264614,82.0499104 375.392356,81.7226691 375.463725,81.3810917 C375.499396,81.1931521 375.525096,81.003448 375.540717,80.812779 L379.495311,80.812779 C379.444565,81.3536044 379.336636,81.887494 379.173344,82.4054577 C378.932069,83.2690701 378.564086,84.0919399 378.081456,84.8470973 C377.53813,85.7065019 376.851546,86.4659441 376.051664,87.0922831 C375.149397,87.775736 374.03905,88.1252629 372.908986,88.0815681 L372.936984,88.0815681 Z" id="Shape" fill="#919191"></path>
                <path d="M401.123095,122.846867 C399.008604,122.881397 396.911847,122.455286 394.977725,121.597982 C393.218669,120.807348 391.644862,119.655213 390.358198,118.216171 C389.081584,116.781989 388.092955,115.114408 387.446497,113.304827 C386.093284,109.502466 386.093284,105.348028 387.446497,101.545667 C388.093591,99.7363865 389.082151,98.0689214 390.358198,96.6343227 C391.646674,95.1972905 393.220027,94.0454881 394.977725,93.2525116 C396.912723,92.3979711 399.008871,91.9719844 401.123095,92.003627 C403.230755,91.9696904 405.320545,92.3958414 407.247467,93.2525116 C408.994605,94.0497129 410.557985,95.2011927 411.838997,96.6343227 C413.115044,98.0689214 414.103604,99.7363865 414.750698,101.545667 C416.113194,105.346413 416.113194,109.504081 414.750698,113.304827 C414.106104,115.109147 413.127765,116.775392 411.866994,118.216171 C410.592302,119.659299 409.024374,120.812372 407.268465,121.597982 C405.334752,122.456574 403.237709,122.882743 401.123095,122.846867 L401.123095,122.846867 Z M393.801845,107.453312 C393.785937,108.678916 393.977639,109.898339 394.368787,111.059641 C394.711581,112.080885 395.23561,113.031648 395.915629,113.866124 C396.549895,114.640476 397.342252,115.269674 398.239391,115.711386 C400.066284,116.581715 402.186905,116.581715 404.013799,115.711386 C404.910937,115.269674 405.703294,114.640476 406.337561,113.866124 C407.0214,113.021199 407.545608,112.058224 407.884402,111.02456 C408.271476,109.852764 408.460724,108.624423 408.444345,107.390166 C408.45855,106.174421 408.269278,104.964894 407.884402,103.811901 C407.548697,102.7769 407.024193,101.813382 406.337561,100.970338 C405.704019,100.193445 404.911608,99.5618119 404.013799,99.1180595 C403.112836,98.6814013 402.123811,98.4581526 401.123095,98.4653743 C400.119643,98.4642632 399.130599,98.7049029 398.239391,99.1671729 C397.342575,99.6217494 396.550923,100.259949 395.915629,101.0405 C395.228996,101.883544 394.704492,102.847062 394.368787,103.882063 C393.982307,105.032421 393.790677,106.239521 393.801845,107.453312 Z" id="Shape" fill="#919191"></path>
                <polygon id="Path" fill="#919191" points="420.68609 80.8057628 427.846356 80.8057628 427.846356 122.278554 420.68609 122.278554"></polygon>
                <path d="M446.072489,122.846867 C444.231366,122.865215 442.410897,122.45702 440.753034,121.654112 C439.13601,120.865428 437.704562,119.741416 436.553464,118.356495 C435.34811,116.899394 434.416147,115.235395 433.802746,113.445151 C433.133264,111.50004 432.799516,109.454746 432.815847,107.397182 C432.800325,105.339667 433.12433,103.293739 433.774749,101.342197 C434.360015,99.5611414 435.2558,97.8982694 436.420478,96.4308527 C437.509376,95.0778534 438.865204,93.9647716 440.40307,93.1613009 C441.93899,92.366777 443.644221,91.957495 445.37256,91.968546 C447.350365,91.9389372 449.294658,92.4822194 450.971987,93.5331598 C452.607047,94.5667888 453.936258,96.0203431 454.821592,97.7428832 L454.821592,92.8315393 L461.981858,92.8315393 L461.981858,122.201376 L454.835591,122.201376 L454.835591,117.374227 C453.998722,118.975969 452.776652,120.343271 451.279955,121.352415 C449.730814,122.358149 447.917881,122.878429 446.072489,122.846867 L446.072489,122.846867 Z M454.835591,104.345133 C454.253548,102.708436 453.248814,101.255796 451.923889,100.135409 C450.729544,99.0948716 449.201714,98.519616 447.61933,98.5145413 C446.579863,98.5079373 445.556737,98.7740127 444.651634,99.2864484 C443.738627,99.8014285 442.93873,100.495872 442.299875,101.328164 C441.630629,102.199001 441.116766,103.179363 440.781031,104.225857 C440.421411,105.316809 440.239432,106.458703 440.242086,107.607668 C440.235043,108.777598 440.426763,109.94019 440.809028,111.045609 C441.153218,112.072064 441.687508,113.02421 442.383867,113.852091 C443.052405,114.641445 443.880154,115.279898 444.812618,115.725418 C445.770323,116.190391 446.821185,116.430346 447.885303,116.427039 C449.381022,116.460904 450.843248,115.98057 452.028878,115.065895 C453.233113,114.088031 454.191986,112.840886 454.828591,111.424484 L454.835591,104.345133 Z" id="Shape" fill="#919191"></path>
                <path d="M241.070497,61.6585377 C239.229375,61.6768856 237.408906,61.2686908 235.751042,60.4657827 C234.135485,59.6747497 232.704495,58.5510975 231.551473,57.1681661 C230.344317,55.7123067 229.41216,54.0479614 228.800755,52.2568221 C228.13074,50.3118452 227.796977,48.2664588 227.813856,46.2088529 C227.798205,44.1536213 228.122223,42.1099807 228.772758,40.1608836 C229.360325,38.380823 230.255901,36.71834 231.418486,35.2495397 C232.506359,33.8973522 233.862526,32.7863813 235.401078,31.9870041 C236.935814,31.1892891 238.641844,30.7798155 240.370569,30.7942491 C242.347727,30.7621402 244.292078,31.3030023 245.969995,32.3518468 C247.602866,33.3881017 248.931467,34.8409886 249.819601,36.5615701 L249.819601,31.6502262 L256.979867,31.6502262 L256.979867,61.0270792 L249.833599,61.0270792 L249.833599,56.1929135 C248.996731,57.7946563 247.774661,59.1619579 246.277964,60.1711021 C244.728044,61.1743651 242.915168,61.692186 241.070497,61.6585377 L241.070497,61.6585377 Z M249.833599,43.1357548 C249.253366,41.4981275 248.248326,40.0450462 246.921898,38.9260314 C245.727553,37.8854937 244.199722,37.3102381 242.617339,37.3052879 C241.578462,37.2960928 240.555294,37.5597602 239.649643,38.0700544 C238.734627,38.5851634 237.934323,39.2823477 237.297884,40.1187864 C236.627197,40.9886964 236.113197,41.9693213 235.77904,43.0164793 C235.418851,44.1048765 235.236847,45.2445563 235.239959,46.3912742 C235.234149,47.5605395 235.423409,48.7225618 235.800037,49.829215 C236.147713,50.8555851 236.68426,51.8075211 237.381875,52.6356972 C238.044452,53.4366338 238.873288,54.083109 239.810626,54.5300728 C240.768332,54.9950453 241.819194,55.2350003 242.883312,55.2316933 C244.384528,55.256426 245.84821,54.7607431 247.026887,53.8284522 C248.232514,52.8547971 249.191774,51.6095517 249.8266,50.1940577 L249.833599,43.1357548 Z" id="Shape" fill="#919191"></path>
                <path d="M274.044118,61.6585568 C271.694961,61.6582064 269.363193,61.2547963 267.149825,60.4657827 C265.01478,59.7323141 263.050362,58.5722954 261.375416,57.0559068 L264.049142,52.284887 C265.584508,53.4685596 267.263808,54.4516988 269.04663,55.2106447 C270.579245,55.8526625 272.222116,56.1887042 273.883135,56.1999297 C275.065144,56.2644002 276.238909,55.9684149 277.24979,55.3509688 C278.052532,54.8048041 278.515981,53.880975 278.474664,52.9093293 C278.515258,51.9101535 277.943944,50.9871683 277.032812,50.579949 C275.515025,49.8814437 273.941724,49.3111513 272.329294,48.875011 C270.51648,48.3417794 268.962639,47.8295964 267.68177,47.338462 C266.569803,46.939357 265.524427,46.3740095 264.581088,45.6615888 C263.843387,45.0956956 263.256704,44.355749 262.873263,43.5076137 C262.494101,42.5800995 262.310602,41.5839425 262.334318,40.581856 C262.312821,39.1739655 262.597027,37.7782302 263.167233,36.4914081 C263.703468,35.2981228 264.497123,34.2389543 265.490995,33.3902452 C266.522814,32.5206874 267.710569,31.8563173 268.990636,31.4327238 C270.393323,30.9599113 271.864346,30.7228405 273.34419,30.7311033 C275.353215,30.7164688 277.350329,31.0414285 279.251584,31.6923234 C281.136012,32.3693264 282.857644,33.4353989 284.305067,34.8215511 L281.414363,39.424182 C280.164294,38.392134 278.770775,37.5483282 277.277787,36.9193966 C276.011862,36.4062301 274.660671,36.1372429 273.295195,36.1265654 C272.222947,36.0900244 271.163068,36.3653819 270.243508,36.9193966 C269.402667,37.4876673 268.934112,38.4673017 269.018633,39.4803117 C269.001525,39.9335609 269.102862,40.3834247 269.312603,40.7853259 C269.542497,41.1603269 269.862568,41.4715223 270.243508,41.6904165 C270.77778,42.0052008 271.343054,42.2638336 271.930335,42.4621991 C272.630263,42.7077663 273.491175,42.9603497 274.520069,43.2269655 C276.444872,43.7601971 278.096703,44.2864125 279.468562,44.8196442 C280.672529,45.2590152 281.806554,45.8711201 282.835217,46.6368414 C283.655452,47.257264 284.315472,48.065639 284.76002,48.9942865 C285.190182,50.0069026 285.397865,51.1004712 285.368958,52.2006925 C285.487735,54.8528118 284.361004,57.4077171 282.32427,59.1046388 C280.294478,60.8119155 277.534427,61.6632151 274.044118,61.6585568 Z" id="Path" fill="#919191"></path>
                <path d="M302.951156,61.6585377 C300.836931,61.6901803 298.740784,61.2641935 296.805786,60.4096531 C295.048088,59.6166766 293.474735,58.4648741 292.186259,57.027842 C290.910212,55.5932433 289.921651,53.9257782 289.274557,52.116498 C288.593066,50.2416771 288.249423,48.260359 288.259661,46.2649825 C288.246795,44.2511008 288.590417,42.2508982 289.274557,40.3573374 C289.921015,38.5477569 290.909645,36.8801756 292.186259,35.4459934 C293.472923,34.006952 295.04673,32.8548169 296.805786,32.0641823 C298.739908,31.2068782 300.836665,30.7807675 302.951156,30.8152977 C305.059148,30.7777399 307.149711,31.2040483 309.075528,32.0641823 C310.824118,32.8588992 312.387976,34.0107318 313.667058,35.4459934 C314.943672,36.8801756 315.932301,38.5477569 316.578759,40.3573374 C317.262899,42.2508982 317.606521,44.2511008 317.593655,46.2649825 C317.603894,48.260359 317.260251,50.2416771 316.578759,52.116498 C315.933404,53.9204611 314.955145,55.5865695 313.695055,57.027842 C312.418473,58.4688917 310.851024,59.6216117 309.096526,60.4096531 C307.161527,61.2641935 305.06538,61.6901803 302.951156,61.6585377 L302.951156,61.6585377 Z M295.629906,46.2579663 C295.614681,47.4829619 295.803939,48.7018848 296.189849,49.864296 C296.536306,50.8853626 297.062578,51.8358936 297.743689,52.6707783 C298.376646,53.4529074 299.172016,54.0873895 300.074451,54.5300728 C301.899281,55.4095258 304.024029,55.4095258 305.848859,54.5300728 C306.747409,54.0906056 307.540211,53.4610541 308.172621,52.6848107 C308.859253,51.8417666 309.383757,50.8782481 309.719462,49.8432474 C310.107048,48.6715746 310.296309,47.4431463 310.279405,46.2088529 C310.292558,44.9931839 310.103313,43.7838313 309.719462,42.630588 C309.382272,41.5962293 308.857911,40.6329727 308.172621,39.7890247 C307.538354,39.0146726 306.745997,38.3854742 305.848859,37.9437627 C304.947896,37.5071045 303.958871,37.2838557 302.958155,37.2910774 C301.954671,37.2896913 300.965562,37.5303467 300.074451,37.9928761 C299.180511,38.45191 298.389709,39.0894237 297.750689,39.866203 C297.067699,40.7128307 296.541449,41.675203 296.196848,42.7077663 C295.817015,43.8525065 295.625533,45.0515741 295.629906,46.2579663 L295.629906,46.2579663 Z" id="Shape" fill="#919191"></path>
                <path d="M320.638343,46.2018367 C320.627868,44.1875464 320.973858,42.1873572 321.660238,40.2941915 C322.966613,36.6334616 325.707069,33.6659042 329.247461,32.0782147 C331.181174,31.2196231 333.278217,30.7934544 335.392831,30.8293301 C338.152534,30.7497479 340.875149,31.4814361 343.225028,32.9341918 C345.323836,34.2763359 346.998773,36.1889198 348.054534,38.4489295 L341.055251,40.7221801 C339.374054,37.658125 335.595928,36.4470642 332.453132,37.9648113 C331.560231,38.4008773 330.768577,39.0199558 330.129371,39.7820085 C329.441178,40.6120568 328.914147,41.5639587 328.57553,42.5884908 C328.191845,43.7611037 328.002685,44.9888755 328.015587,46.2228853 C328.000597,47.4593039 328.199522,48.6889706 328.603527,49.8572798 C328.957246,50.8901299 329.490403,51.8521324 330.178365,52.6988431 C330.813264,53.475407 331.60841,54.1049235 332.509127,54.5441052 C333.379146,54.9774129 334.337354,55.2031362 335.30884,55.2036285 C336.567342,55.2097132 337.801237,54.8542323 338.864475,54.1792625 C339.858031,53.5973746 340.651427,52.7261987 341.139242,51.6814933 L348.138525,53.9477277 C347.154154,56.2466957 345.493804,58.1900857 343.379013,59.518595 C340.995817,61.0073196 338.227779,61.7589617 335.420828,61.6795863 C333.306604,61.7112289 331.210457,61.2852422 329.275458,60.4307017 C327.51049,59.6327672 325.926635,58.4819945 324.620935,57.0488906 C323.328054,55.6046801 322.323053,53.9256298 321.660238,52.1024656 C320.96586,50.2138762 320.619604,48.2145246 320.638343,46.2018367 Z" id="Path" fill="#919191"></path>
                <path d="M352.569071,27.1668708 L352.569071,19.6174336 L359.708339,19.6174336 L359.708339,27.1668708 L352.569071,27.1668708 Z M352.569071,61.090225 L352.569071,31.3204645 L359.708339,31.3204645 L359.708339,61.090225 L352.569071,61.090225 Z" id="Shape" fill="#919191"></path>
                <path d="M377.717494,61.6585377 C375.876451,61.6761271 374.056152,61.2679705 372.398039,60.4657827 C370.783262,59.6734997 369.352515,58.5500379 368.198469,57.1681661 C366.991314,55.7123067 366.059156,54.0479614 365.447751,52.2568221 C364.774368,50.3126992 364.440509,48.2667251 364.460852,46.2088529 C364.441815,44.1533676 364.765921,42.1091692 365.419754,40.1608836 C366.007322,38.380823 366.902897,36.71834 368.065483,35.2495397 C369.151748,33.8957524 370.508279,32.7844837 372.048075,31.9870041 C373.582511,31.1884832 375.288743,30.7789609 377.017565,30.7942491 C378.994469,30.7641304 380.93827,31.3048394 382.616992,32.3518468 C384.249478,33.386441 385.576193,34.8399087 386.459598,36.5615701 L386.459598,31.6502262 L393.619864,31.6502262 L393.619864,61.0270792 L386.480596,61.0270792 L386.480596,56.1929135 C385.648396,57.7957174 384.428254,59.163554 382.931959,60.1711021 C381.378993,61.1733661 379.564206,61.6910372 377.717494,61.6585377 L377.717494,61.6585377 Z M386.480596,43.1357548 C385.905271,41.4956095 384.899396,40.0413209 383.568894,38.9260314 C382.376371,37.8870683 380.851306,37.311919 379.271334,37.3052879 C378.232458,37.2960928 377.209289,37.5597602 376.303639,38.0700544 C375.388623,38.5851634 374.588318,39.2823477 373.95188,40.1187864 C373.281573,40.9900275 372.765462,41.9701622 372.426036,43.0164793 C372.068223,44.1052694 371.888585,45.2449396 371.893955,46.3912742 C371.888145,47.5605395 372.077405,48.7225618 372.454033,49.829215 C372.799293,50.8551926 373.333476,51.807147 374.028872,52.6356972 C374.697649,53.4277244 375.528288,54.0665663 376.464622,54.5090241 C377.422328,54.9739966 378.473189,55.2139516 379.537307,55.2106447 C381.036584,55.2366502 382.498473,54.740737 383.673883,53.8074036 C384.880463,52.8346843 385.839915,51.5891902 386.473596,50.1730091 L386.480596,43.1357548 Z" id="Shape" fill="#919191"></path>
                <path d="M398.34438,46.2018367 C398.335032,44.1882466 398.678549,42.1886573 399.359276,40.2941915 C400.004915,38.4780222 401.004168,36.8085748 402.298975,35.3828476 C403.614237,33.9801697 405.197011,32.856427 406.953498,32.0782147 C408.887211,31.2196231 410.984254,30.7934544 413.098868,30.8293301 C415.8564,30.7494794 418.576849,31.4812396 420.924066,32.9341918 C423.026475,34.2741306 424.704216,36.187144 425.76057,38.4489295 L418.761287,40.7221801 C417.080091,37.658125 413.301964,36.4470642 410.159169,37.9648113 C409.264697,38.398351 408.472551,39.0178144 407.835407,39.7820085 C407.144714,40.6103394 406.617407,41.5627404 406.281566,42.5884908 C405.897882,43.7611037 405.708722,44.9888755 405.721624,46.2228853 C405.706634,47.4593039 405.905558,48.6889706 406.309564,49.8572798 C406.663283,50.8901299 407.19644,51.8521324 407.884402,52.6988431 C408.516812,53.4750865 409.309614,54.104638 410.208164,54.5441052 C411.078183,54.9774129 412.036391,55.2031362 413.007877,55.2036285 C414.266217,55.2085395 415.49979,54.8531514 416.563513,54.1792625 C417.557318,53.5997943 418.349092,52.7277164 418.83128,51.6814933 L425.830563,53.9477277 C424.846192,56.2466957 423.185842,58.1900857 421.071051,59.518595 C418.685184,61.0071136 415.914986,61.7586813 413.105867,61.6795863 C410.991643,61.7112289 408.895495,61.2852422 406.960497,60.4307017 C405.197639,59.6326322 403.616101,58.4818122 402.312973,57.0488906 C401.018009,55.6049582 400.010661,53.9259545 399.345277,52.1024656 C398.661336,50.2116745 398.322304,48.2129663 398.34438,46.2018367 Z" id="Path" fill="#919191"></path>
                <path d="M429.183219,27.1668708 L429.183219,19.6174336 L436.343486,19.6174336 L436.343486,27.1668708 L429.183219,27.1668708 Z M429.183219,61.090225 L429.183219,31.3204645 L436.343486,31.3204645 L436.343486,61.090225 L429.183219,61.090225 Z" id="Shape" fill="#919191"></path>
                <path d="M455.745497,61.6585377 C453.631273,61.6901803 451.535126,61.2641935 449.600127,60.4096531 C447.840437,59.6166209 446.264805,58.4648952 444.973601,57.027842 C443.699941,55.591492 442.711669,53.9245135 442.0619,52.116498 C441.380408,50.2416771 441.036765,48.260359 441.047004,46.2649825 C441.034138,44.2511008 441.37776,42.2508982 442.0619,40.3573374 C442.711044,38.549026 443.699383,36.8819341 444.973601,35.4459934 C446.262861,34.0067805 447.83898,32.8546984 449.600127,32.0641823 C451.53384,31.2055907 453.630883,30.7794219 455.745497,30.8152977 C457.851159,30.7785403 459.939271,31.2048362 461.86287,32.0641823 C463.612519,32.8605523 465.178348,34.0120811 466.461399,35.4459934 C467.733259,36.8836623 468.721315,38.5502765 469.373101,40.3573374 C470.053827,42.2518031 470.397344,44.2513925 470.388183,46.2649825 C470.394995,48.2600858 470.05145,50.240838 469.373101,52.116498 C468.725185,53.9207843 467.744578,55.5868484 466.482397,57.027842 C465.207127,58.4673007 463.642315,59.6198358 461.890868,60.4096531 C459.955869,61.2641935 457.859722,61.6901803 455.745497,61.6585377 L455.745497,61.6585377 Z M448.459244,46.2579663 C448.440538,47.4832075 448.629887,48.7027112 449.019187,49.864296 C449.360414,50.8862299 449.884593,51.8372642 450.566028,52.6707783 C451.198438,53.4470217 451.99124,54.0765732 452.88979,54.5160403 C454.71462,55.3954934 456.839368,55.3954934 458.664198,54.5160403 C459.562748,54.0765732 460.35555,53.4470217 460.98796,52.6707783 C461.674286,51.8263978 462.200884,50.8633888 462.541801,49.829215 C462.926477,48.6568405 463.115663,47.428903 463.101743,46.1948205 C463.111424,44.9794063 462.922269,43.770622 462.541801,42.6165556 C462.199307,41.5830705 461.672858,40.6203357 460.98796,39.7749923 C460.353694,39.0006402 459.561336,38.3714418 458.664198,37.9297302 C457.765691,37.4931685 456.778957,37.2698962 455.780494,37.2770484 C454.774871,37.2764515 453.783677,37.5170302 452.88979,37.9788437 C451.99585,38.4378776 451.205048,39.0753913 450.566028,39.8521706 C449.882189,40.697095 449.357981,41.6600706 449.019187,42.6937339 C448.636871,43.8425174 448.447647,45.0469993 448.459244,46.2579663 L448.459244,46.2579663 Z M457.558312,27.8684914 L452.966782,26.388072 L455.850487,19.631466 L462.527802,19.631466 L457.558312,27.8684914 Z" id="Shape" fill="#919191"></path>
                <path d="M501.219863,61.090225 L494.059571,61.090225 L494.059571,44.3846394 C494.059571,41.9991295 493.667611,40.2567718 492.883691,39.1575662 C492.149394,38.0848835 490.919024,37.4629181 489.622026,37.5087579 C488.869377,37.518797 488.125653,37.673618 487.43125,37.9648113 C486.67013,38.2799867 485.961916,38.7106751 485.331465,39.2417607 C484.651828,39.8160438 484.049513,40.4764182 483.539649,41.2062983 C483.006413,41.964383 482.608544,42.8095258 482.363769,43.7040675 L482.363769,61.090225 L475.196504,61.090225 L475.196504,31.3204645 L481.663841,31.3204645 L481.663841,36.828186 C482.688917,34.9395797 484.250447,33.3986939 486.150381,32.4009602 C488.190219,31.3175462 490.470547,30.76962 492.778702,30.8082815 C494.271615,30.7433935 495.752892,31.0982041 497.055264,31.8326476 C498.12828,32.4799974 499.011927,33.3996643 499.617001,34.4988057 C500.248175,35.6660319 500.674346,36.9333958 500.876872,38.2454595 C501.107152,39.6556438 501.221857,41.0823615 501.219863,42.5113125 L501.219863,61.090225 Z" id="Path" fill="#919191"></path>
            </g>
        </g>
    </g>
</svg>