<svg xmlns="http://www.w3.org/2000/svg" viewBox="0 0 500 500"><path d="M209.375 40.5c9.089 4.053 16.261 5.151 26.159 4.68 7.878-.36 13.649 1.159 20.552 4.972 3.315 1.468 6.47.239 9.848-.675 8.593-1.982 16.6.367 24.109 4.703C295.624 58.344 298.965 64.437 301 71c.125 3.832.125 3.832-.062 7.75-.317 5.064-.317 5.064 1.421 9.664a82 82 0 0 0 3.75 3.77c4.227 4.06 7.134 9.22 7.454 15.129-1.223 18.473-15.333 32.435-28.395 44.097-8.035 6.754-17.013 12.49-26.168 17.59 18.788-1.832 37.523-3.956 56.059-7.602 4.375-.592 8.718-.622 13.129-.648l2.732-.062 2.623-.016 2.376-.028c2.639.452 3.497 1.225 5.081 3.356.563 3.375.563 3.375 0 7-3.262 3.414-6.466 5.652-11 7h-3l.141 1.906c.262 6.221-.258 11.054-4.141 16.094-3.572 2.679-5.292 3.059-9.75 2.688l-2.039-.375c-2.5-.354-4.816-.247-7.336-.125-4.913.075-7.156-1.041-10.875-4.188l-1-1c-6.889-.597-13.33 1.249-20 2.813l-7.266 1.652-3.517.804a660 660 0 0 1-11.967 2.606l-3.234.68c-3.374.498-6.611.522-10.016.445l.621 2.02c4.634 15.853 6.231 35.931-.933 51.23-1.617 3.681-1.86 5.612-.563 9.438l.883 2.011c5.567 12.909 3.396 25.541-1.008 38.301l3.375.188c7.044.911 13.377 4.066 18.25 9.25 1.853 2.426 2.384 3.607 3 6.687-.811 3.732-1.738 5.349-4.625 7.875-1.977.391-1.977.391-4.125.563L247 330c-1.392 1.867-1.392 1.867-2 4-3.78 2.52-5.371 2.065-9.695 1.484-2.578-.541-4.733-1.58-7.09-2.734-4.333-1.467-9.057-1.623-13.594-2.027-4.059-.81-6.396-2.167-9.621-4.723-1.76-3.52-1.532-7.197-1-11 1.117-2.687 1.117-2.687 2.5-5.437 4.005-8.123 3.005-15.107.5-23.563l-1.773.805c-6.106 2.511-11.528 3.495-18.039 3.945-8.11.615-13.451 2.983-20.172 7.473-3.121 1.839-5.44 2.429-9.016 2.777q.682 2.845 1.375 5.688l.773 3.199c.772 3.07.772 3.07 1.926 5.726.943 2.43 1.286 4.292 1.364 6.887l.121 2.219c-.886 3.616-2.669 4.981-5.559 7.281-2.945 1.34-5.963 2.274-9.062 3.188q-2.394.736-4.786 1.48l-2.125.634c-2.082.667-2.082.667-4.148 1.762-3.43 1.708-7.144 1.395-10.879.936-2.562-1.375-2.562-1.375-4-3v-2l-1.828.141c-6.463.291-6.463.291-9.734-1.703-2.077-3.521-2.112-5.395-1.438-9.438 3.513-6.744 9.078-11.396 16.289-13.746 1.888-.484 3.799-.878 5.711-1.254v-2l-3.273.984c-5.44 1.354-10.774 1.317-16.352 1.266l-3.226-.021C85.776 308.924 64.121 302.479 47 286c-10.968-11.379-16.43-24.763-16.366-40.506.264-11.163 4.53-19.473 12.214-27.4 7.687-7.214 14.675-9.702 25.197-9.567 8.465.368 15.231 2.976 21.424 8.774 6.55 7.268 9.066 15.192 8.84 24.929-.887 7.961-5.377 14.556-11.309 19.77-6.631 4.527-13.212 4.421-21 4h-3c13.905 9.862 28.079 14.311 45.176 11.663 7.595-1.475 14.216-3.615 20.824-7.663a203 203 0 0 0-2-5l-1.187-3.187c-2.443-3.791-4.53-3.671-8.813-4.813-4.022-2.703-7.123-5.472-9-10-.483-3.785-.266-5.529 1.625-8.875C112 236 112 236 115.25 235.688L118 236v-3l-2.191-.77c-8.685-3.804-16.24-11.435-20.684-19.73-1.684-5.24-1.876-9.306.313-14.375C101.019 188.086 110.375 182.559 120 177l3-2-1.062-1.562c-1.364-3.546-.898-5.791.062-9.438 2.577-3.119 4.154-4.718 8-6l-2.055-1.547C115.326 146.595 107.316 135.567 101 121l-1.16-2.574c-2.082-5.548-2.134-11.191-2.215-17.051l-.043-2.425C97.653 90.352 99.921 84.246 106 78c9.967-7.791 21.215-12.287 32.932-16.733 3.67-1.463 6.108-2.915 8.693-5.892 16.914-17.8 38.899-25.071 61.75-14.875" style="fill:#88b31f" transform="translate(-45.054 -53.237)scale(1.5859)"/><path d="M209.375 40.5c9.089 4.053 16.261 5.151 26.159 4.68 7.878-.36 13.649 1.159 20.552 4.972 3.315 1.468 6.47.239 9.848-.675 8.593-1.982 16.6.367 24.109 4.703C295.624 58.344 298.965 64.437 301 71c.125 3.832.125 3.832-.062 7.75-.317 5.064-.317 5.064 1.421 9.664a82 82 0 0 0 3.75 3.77c4.227 4.06 7.134 9.22 7.454 15.129-1.223 18.473-15.333 32.435-28.395 44.097-8.035 6.754-17.013 12.49-26.168 17.59 18.788-1.832 37.523-3.956 56.059-7.602 4.375-.592 8.718-.622 13.129-.648l2.732-.062 2.623-.016 2.376-.028c2.639.452 3.497 1.225 5.081 3.356.563 3.375.563 3.375 0 7-3.262 3.414-6.466 5.652-11 7h-3l.141 1.906c.262 6.221-.258 11.054-4.141 16.094-3.572 2.679-5.292 3.059-9.75 2.688l-2.039-.375c-2.5-.354-4.816-.247-7.336-.125-4.913.075-7.156-1.041-10.875-4.188l-1-1c-6.889-.597-13.33 1.249-20 2.813l-7.266 1.652-3.517.804a660 660 0 0 1-11.967 2.606l-3.234.68c-3.374.498-6.611.522-10.016.445l.621 2.02c4.634 15.853 6.231 35.931-.933 51.23-1.617 3.681-1.86 5.612-.563 9.438l.883 2.011c5.567 12.909 3.396 25.541-1.008 38.301l3.375.188c7.044.911 13.377 4.066 18.25 9.25 1.853 2.426 2.384 3.607 3 6.687-.811 3.732-1.738 5.349-4.625 7.875-1.977.391-1.977.391-4.125.563L247 330c-1.392 1.867-1.392 1.867-2 4-3.78 2.52-5.371 2.065-9.695 1.484-2.578-.541-4.733-1.58-7.09-2.734-4.333-1.467-9.057-1.623-13.594-2.027-4.059-.81-6.396-2.167-9.621-4.723-1.76-3.52-1.532-7.197-1-11 1.117-2.687 1.117-2.687 2.5-5.437 4.005-8.123 3.005-15.107.5-23.563l-1.773.805c-6.106 2.511-11.528 3.495-18.039 3.945-8.11.615-13.451 2.983-20.172 7.473-3.121 1.839-5.44 2.429-9.016 2.777q.682 2.845 1.375 5.688l.773 3.199c.772 3.07.772 3.07 1.926 5.726.943 2.43 1.286 4.292 1.364 6.887l.121 2.219c-.886 3.616-2.669 4.981-5.559 7.281-2.945 1.34-5.963 2.274-9.062 3.188q-2.394.736-4.786 1.48l-2.125.634c-2.082.667-2.082.667-4.148 1.762-3.43 1.708-7.144 1.395-10.879.936-2.562-1.375-2.562-1.375-4-3v-2l-1.828.141c-6.463.291-6.463.291-9.734-1.703-2.077-3.521-2.112-5.395-1.438-9.438 3.513-6.744 9.078-11.396 16.289-13.746 1.888-.484 3.799-.878 5.711-1.254v-2l-3.273.984c-5.44 1.354-10.774 1.317-16.352 1.266l-3.226-.021C85.776 308.924 64.121 302.479 47 286c-10.968-11.379-16.43-24.763-16.366-40.506.264-11.163 4.53-19.473 12.214-27.4 7.687-7.214 14.675-9.702 25.197-9.567 8.465.368 15.231 2.976 21.424 8.774 6.55 7.268 9.066 15.192 8.84 24.929-.887 7.961-5.377 14.556-11.309 19.77-6.631 4.527-13.212 4.421-21 4h-3c13.905 9.862 28.079 14.311 45.176 11.663 7.595-1.475 14.216-3.615 20.824-7.663a203 203 0 0 0-2-5l-1.187-3.187c-2.443-3.791-4.53-3.671-8.813-4.813-4.022-2.703-7.123-5.472-9-10-.483-3.785-.266-5.529 1.625-8.875C112 236 112 236 115.25 235.688L118 236v-3l-2.191-.77c-8.685-3.804-16.24-11.435-20.684-19.73-1.684-5.24-1.876-9.306.313-14.375C101.019 188.086 110.375 182.559 120 177l3-2-1.062-1.562c-1.364-3.546-.898-5.791.062-9.438 2.577-3.119 4.154-4.718 8-6l-2.055-1.547C115.326 146.595 107.316 135.567 101 121l-1.16-2.574c-2.082-5.548-2.134-11.191-2.215-17.051l-.043-2.425C97.653 90.352 99.921 84.246 106 78c9.967-7.791 21.215-12.287 32.932-16.733 3.67-1.463 6.108-2.915 8.693-5.892 16.914-17.8 38.899-25.071 61.75-14.875m-56.562 18.25C148.14 63.179 144.051 65.862 138 68c-20.462 7.657-20.462 7.657-34.437 23.813-2.912 16.5 3.435 31.757 12.503 45.265 11.588 14.938 26.003 22.583 42.732 30.676C161 169 161 169 162 171c-8.848-1.028-16.083-3.997-24-8q-1.003 1.967-2 3.938l-1.125 2.214c-.946 1.658-.946 1.658-.875 2.848h10l-1 3c-2.427.882-4.763 1.59-7.25 2.25-13.166 3.851-27.482 10.739-35.059 22.84-1.192 3.294-1.203 6.495-.691 9.91 4.59 9.579 14.593 15.23 23.473 20.336L126 232v2l-3 2c.744 5.551.744 5.551 2 11-3.829-1.453-5.121-3.429-7-7l-4 1c-.419 2.789-.419 2.789 0 6 2.55 3.102 4.177 4.726 8 6 6.13.502 9.132.111 14-4 4.261-4.309 6.626-8.225 7.438-14.25-1.035-8.87-6.911-15.085-13.438-20.75-2.283-1.775-4.591-3.394-7-5 .063-2.75.063-2.75 1-6 2.419-1.728 4.326-2.843 7-4l2.031-.91c4.12-1.704 7.445-2.429 11.969-2.09l1 3-2.23.551c-7.371 1.681-7.371 1.681-13.77 5.449-.468 4.107-.468 4.107 2.449 6.48q1.611 1.363 3.239 2.708c5.771 5.065 10.408 9.607 11.773 17.464.415 7.055-1.469 12.559-5.461 18.348-3.092 3.448-6.586 5.572-11 7 .567 4.13.567 4.13 2 8 3.278-.752 3.278-.752 5-4h2c-.645 3.702-1.671 7.05-3 10.563-4.449 11.793-3.588 22.431 0 34.437l1.188 4.25L139 313l-1.836.227c-8.306 1.303-14.817 4.504-20.851 10.398-1.549 2.265-1.549 2.265-1.063 4.688L116 330c3.401-.104 3.401-.104 7-1 1.609-2.376 1.609-2.376 3-5 3.188-1.812 3.188-1.812 6-3l-.875 1.574c-2.892 5.388-2.892 5.388-3.125 11.426 6.279.73 10.974-1.335 16.754-3.687 4.031-1.63 8.109-2.981 12.246-4.313 1.113-3.977.921-5.846-.937-9.5-3.625-8.457-3.021-17.537-.051-26.137 1.655-3.957 3.412-7.915 5.988-11.363l3-1-1 6c14.043 4.537 29.856 2.454 43-4 12.196-6.562 20.112-17.218 25-30 5.977-22.956-.389-46.361-5-69h-5c1-3 1-3 2.708-3.9l2.245-.756 2.536-.893 2.761-.951c15.632-5.674 30.793-12.958 43.75-23.5l2.816-2.211c11.846-9.444 23.993-20.7 28.184-35.789v-3c-6.87-.513-12.872 1.369-19.437 3.25l-3.771 1.058c-10.224 2.885-20.391 5.958-30.56 9.03C224.442 132.032 197.346 139.88 167 139v3l-2-1c-.312-2.812-.312-2.812 0-6 2.5-1.875 2.5-1.875 5-3l-1 3c19.874 6.625 47.94-4.187 67-10l2.338-.713 5.118-1.561q5.514-1.684 11.03-3.365 2.818-.859 5.636-1.719c15.515-4.735 31.07-8.989 46.878-12.642-3.321-7.192-7.507-12.293-13-18l-2.094-2.25C285.521 78.079 278.356 72.54 271 67l-1.788-1.366A210 210 0 0 0 257 57l-2.961-1.957c-8.046-4.509-14.707-4.089-23.599-3.647-9.875.186-17.982-2.943-26.952-6.84-19.97-8.49-35.89.084-50.675 14.194" style="fill:#0c1407" transform="translate(-45.054 -53.237)scale(1.5859)"/><path d="M220.125 194.625C227.538 200.48 232.81 209.679 234 219c1.066 19.075-.808 35.861-13.75 50.875-5.363 5.623-12.631 11.873-20.687 12.313-10.62-.212-18.458-2.492-26.313-9.821-7.612-8.183-9.43-17.404-9.437-28.179l-.038-2.659c-.011-5.221.558-9.527 2.225-14.529l.605-2.668c2.829-12.243 9.483-23.31 20.208-30.117 11.669-6.564 21.967-7.34 33.312.41" style="fill:#cde8c4" transform="translate(-45.054 -53.237)scale(1.5859)"/><path d="M82.977 219.25c6.038 4.523 8.361 10.386 9.472 17.711.444 7.67-1.402 13.209-6.449 19.039-5.19 4.128-10.458 5.429-17 5-6.562-1.381-10.215-4.565-14-10-1.601-3.202-1.357-6.518-1-10 1.694-4.636 3.673-7.554 8-10 4.785-.931 7.949-.686 12.063 2 2.662 4.123 2.562 6.153 1.937 11-1.125 2.063-1.125 2.063-3 3-3.187-.312-3.187-.312-6-1v-4h3l-1-2a99 99 0 0 0-5 0c-1.32 1.105-1.32 1.105-1.25 3.875-.036 3.087-.036 3.087 1.625 4.938 3.278 2.395 5.597 2.429 9.625 2.187 2.594-.865 3.655-1.437 5.086-3.773 1.637-3.987 1.461-7.999.914-12.227-2.059-4.118-3.739-6.327-8-8-5.967-.685-11.091-.801-16 3h-2c-4.148 8-5.398 15.01-3.312 23.945C54.053 264.014 59.912 271.458 69 277c15.409 7.15 34.292 8.835 50.711 3.867 2.878-1.09 5.596-2.379 8.289-3.867h2v25c-24.6 4.92-49.758.811-70.715-12.758C48.407 281.246 41.257 270.772 37 258c-1.36-12.942-.57-23.623 7.676-34.137 10.571-11.592 25.361-12.796 38.301-4.613" style="fill:#88af2a" transform="translate(-45.054 -53.237)scale(1.5859)"/><path d="M192 42c6.671.486 11.83 2.437 17.938 5.063 7.797 3.214 14.3 4.786 22.732 3.904 1.959-.174 1.959-.174 5.33.033 3.375 3.106 4.943 6.721 6.625 10.938l1.227 3.027L247 68l1.129 2.91c1.023 3.63 1.172 6.821 1.184 10.59l.05 3.844c-.523 5.268-2.072 8.488-5.988 12.031-4.957 2.387-9.17 2.591-14.449 1C219.794 94.356 214.254 86.695 210 78q-.917-1.82-1.836-3.637a1620 1620 0 0 1-5.141-10.301c-1.604-3.233-3.22-6.46-4.835-9.687z" style="fill:#cde8c2" transform="translate(-45.054 -53.237)scale(1.5859)"/><path d="M186.398 72.852C192.254 76.149 196.877 81.63 199 88c.778 7.063-.074 12.996-4 19-4.244 4.696-8.659 7.55-15.016 8.406-6.978.203-11.594-.343-17.179-4.691-4.911-4.667-7.569-9.83-8.117-16.527C154.873 87.62 157.276 81.6 162 77c7.117-5.588 15.738-7.223 24.398-4.148" style="fill:#cae2c6" transform="translate(-45.054 -53.237)scale(1.5859)"/><path d="M335 166v3c-7.66 4.103-14.137 7.045-23 5-2.437-1.062-2.437-1.062-4-2 1.522 2.629 2.844 4.844 5 7-.375 2.625-.375 2.625-1 5-4.973-.497-8.638-1.553-13-4 1.168 3.814 1.168 3.814 4.125 6.313L305 187v6c-4.109-.293-5.773-.802-8.937-3.562-3.828-3.047-5.261-2.762-10.063-2.438a147 147 0 0 0-8.031 1.68l-2.284.523c-2.397.55-4.791 1.11-7.185 1.672-11.14 2.612-22.117 4.86-33.5 6.125-1.546-5.67-2.485-11.147-3-17 6.564-3.442 13.134-3.952 20.438-4.684l6.018-.65q4.212-.45 8.425-.884 9.28-.961 18.557-1.966l2.026-.217c9.756-1.055 19.398-2.427 29.02-4.358 6.229-1.207 12.178-1.434 18.516-1.241" style="fill:#87ad2a" transform="translate(-45.054 -53.237)scale(1.5859)"/><path d="M229 267c2 1 2 1 3.125 4.125 2.927 13.42-.044 25.15-4.125 37.875l2.563.297c8.249 1.087 14.358 2.619 21 7.641C253 319 253 319 252.75 321.75L252 324c-2.187.375-2.187.375-5 0a382 382 0 0 1-5-6c-2.671-.955-2.671-.955-5-1l1.348 1.574c4.679 5.767 4.679 5.767 4.527 9.426l-.875 2c-4.407.202-7.582-.363-11.687-1.937-5.088-1.809-9.653-2.584-15.036-2.79C213 325 213 325 210 323c-.67-4.593.047-7.33 2-11.5 2.855-6.591 2.693-13.447 2-20.5l-1.086-2.699C212 286 212 286 212.082 283.926c1.308-2.744 3.167-3.948 5.606-5.738 4.429-3.388 7.857-6.824 11.312-11.188" style="fill:#88ae2d" transform="translate(-45.054 -53.237)scale(1.5859)"/><path d="M188.867 68.895C195.49 72.327 199.857 77.337 203 84c2.341 7.639 1.595 15.498-1.68 22.711-3.426 5.941-8.284 10.105-14.664 12.629-6.841 1.7-14.669 2.023-21.156-1.027-1.828-1.118-1.828-1.118-3.5-2.313l-3.25-2.312c-6.119-5.981-7.888-12.039-8.062-20.438.064-7.773 1.649-12.069 6.562-17.937 9.515-8.002 19.562-11.02 31.617-6.418m-28.715 10.3C155.988 85.162 153.911 90.605 155 98c2.462 7.455 6.31 11.998 13 16 4.885 2.442 12.265 1.731 17.426.352 6.008-2.73 10.078-7.292 12.949-13.164 1.36-6.935 1.532-13.096-2.035-19.368-3.159-4.292-7.371-7.841-12.34-9.82-9.394-1.195-17.519-.325-23.848 7.195" style="fill:#0a1806" transform="translate(-45.054 -53.237)scale(1.5859)"/><path d="M266 55c15.582-1.109 15.582-1.109 22.195 4.145 4.001 4.113 7.648 9.215 7.903 15.117L296 81c-6.477-4.755-12.664-9.805-18.82-14.965-3.932-3.269-7.861-6.296-12.18-9.035z" style="fill:#c6d9c1" transform="translate(-45.054 -53.237)scale(1.5859)"/><path d="M190 85c3.447 2.441 4.781 3.83 5.563 8-.714 3.805-1.679 5.412-4.563 8-4.008 1.166-6.053 1.432-9.875-.312C179 99 179 99 178 97c-.569-7.052-.569-7.052 1.5-10.5 3.486-2.092 6.602-2.388 10.5-1.5" style="fill:#0c120b" transform="translate(-45.054 -53.237)scale(1.5859)"/><path d="M163 61c-.322 3.242-.738 4.72-2.996 7.133l-2.441 1.992c-2.735 2.256-4.58 3.901-6.563 6.875h-4c.128-6.139 2.182-8.936 6.309-13.398 3.127-2.962 5.504-2.693 9.691-2.602" style="fill:#427121" transform="translate(-45.054 -53.237)scale(1.5859)"/><path d="M284 61c3.073.243 4.6.626 6.875 2.75 1.422 2.845 1.037 4.266.125 7.25-2.312.688-2.312.688-5 1-1.812-1-1.812-1-3-3-.25-3.625-.25-3.625 0-7z" style="fill:#0a110a" transform="translate(-45.054 -53.237)scale(1.5859)"/><path d="M322 179c.296 5.025.028 7.924-3 12-2 2-2 2-4.625 2.125L312 193l-2-4 2.313-.562c3.752-2.007 4.207-4.562 5.687-8.438 2-1 2-1 4-1" style="fill:#859c4f" transform="translate(-45.054 -53.237)scale(1.5859)"/><path d="M289 62c3 1 3 1 4.168 2.75 2.593 5.722 3.23 9.977 2.832 16.25l-7-5c.509-2.544 1.015-5.056 1.688-7.562.365-2.853-.18-4.043-1.688-6.438" style="fill:#c0d1be" transform="translate(-45.054 -53.237)scale(1.5859)"/></svg>