<svg xmlns="http://www.w3.org/2000/svg" width="280.131" height="278.408" viewBox="715 711.835 280.131 278.408"><path d="M911.453 715.59c5.302 4.833 7.496 10.828 8.09 17.82l.318 3.252q.323 3.357.594 6.719c1.103 10.699 5.766 17.364 12.162 25.685 6.946 9.713 8.322 20.21 7.383 31.934-2.509 12.651-10.262 22.79-20 31h-2c-.835 7.851.52 12.667 4.281 19.516 3.518 7.13 5.538 14.859 7.719 22.484l.634 2.192c2.644 9.282 4.064 18.157 4.366 27.808 9.327-1.978 17.115-3.905 24-11l1-2-2 1c-6.707.79-11.817.45-17.352-3.582-5.116-4.401-8.151-9.544-9.007-16.219-.334-7.287.791-12.45 5.359-18.199 4.913-5.273 10.183-9.479 17.566-10.277 9.18-.32 15.598 1.415 22.684 7.34 6.214 5.914 10.413 13.152 10.918 21.82.066 10.883-1.466 19.327-6.168 29.117a299 299 0 0 0-2 5l2.203.801c4.552 1.951 8.322 4.674 11.797 8.199 1.25 3.625 1.25 3.625 1 7-5.289 10.237-16.03 16.022-26 21h-2l-2 6-1-4-16 8 5 5 3 3c-2.267 1.231-2.267 1.231-5 2-1.844-1.521-1.844-1.521-3.723-3.703-2.363-1.99-2.363-1.99-5.277-3.297-6.158.742-11.688 3.001-17.437 5.25-2.309.858-4.621 1.702-6.934 2.546a753 753 0 0 0-4.626 1.707c-7.521 2.775-15.179 4.901-22.927 6.941-2.201.59-4.393 1.209-6.584 1.837C859.978 982.013 835.298 985.618 811 988l-3.816.398c-25.888 2.22-65.193 5.468-87.688-10.871-2.735-2.792-3.483-4.876-3.558-8.777 2.535-8.95 10.527-14.009 18.062-18.75l2.115-1.353c6.519-4.06 13.241-7.196 20.323-10.147l3.415-1.437c9.55-3.951 19.214-7.227 29.147-10.063 0-2.269-.027-4.539-.141-6.805-.223-6.265-.326-10.365 4.141-15.195 5.875-5.566 12.249-6.345 20-7l-2.437-2.812c-3.59-4.142-3.722-7.671-3.75-13.063l-.043-3.68c.22-3.288.813-5.499 2.23-8.445l-2-2c.19-5.17 2.058-7.839 5.375-11.687l2.398-2.825c1.283-1.433 2.593-2.844 3.973-4.183 1.588-1.653 1.87-3.078 2.254-5.305l-2.09-.312c-15.59-3.684-31.918-16.535-40.828-29.473-4.665-7.702-6.343-13.049-5.082-22.215 4.184-12.996 13.494-26.869 24.137-35.293 2.228-2.042 3.706-4.245 5.363-6.769 4.464-6.682 9.64-10.939 17.5-12.938 3.415-.251 6.827-.267 10.25-.312 8.095-.271 13.981-.963 20.75-5.688a1891 1891 0 0 1 6.813-4.437l1.799-1.181c13.32-8.631 36.34-19.36 51.841-9.792" style="fill:#36b9a0"/><path d="M911.453 715.59c5.302 4.833 7.496 10.828 8.09 17.82l.318 3.252q.323 3.357.594 6.719c1.103 10.699 5.766 17.364 12.162 25.685 6.946 9.713 8.322 20.21 7.383 31.934-2.509 12.651-10.262 22.79-20 31h-2c-.845 7.946.565 12.976 4.398 19.926 2.6 4.989 5.602 11.347 5.602 17.074h-2v-3h-2l-1-6h-2l-.625-3.375c-1.337-5.486-4.321-9.939-7.375-14.625l-.684 2.223c-1.607 3.391-3.441 4.897-6.378 7.215l-2.965 2.363c-2.633 1.947-5.292 3.644-8.098 5.324-3.331 2.136-3.752 2.408-4.812 6.438L890 869a95 95 0 0 1-2 5l1.949.445c7.826 1.943 14.826 5.006 22.051 8.555 1.551-7.651 2.484-15.212 3-23l3 1c.444 20.112.444 20.112-3 27l-7-1-.687 2.188c-2.654 5.685-7.301 8.622-12.543 11.699C893 902 893 902 891 904l2.152 1.059 2.786 1.379 2.777 1.371C901 909 901 909 902 910c5.618-.036 11.144-.419 16.375-2.562 3.551-1.409 5.858-1.721 9.625-1.438l1-2h2l1-13h1v13c18.691-3.27 18.691-3.27 25.563-10.812L960 891l-2 1c-6.707.79-11.817.45-17.352-3.582-5.116-4.401-8.151-9.544-9.007-16.219-.334-7.287.791-12.45 5.359-18.199 4.913-5.273 10.183-9.479 17.566-10.277 9.18-.32 15.598 1.415 22.684 7.34 6.214 5.914 10.413 13.152 10.918 21.82.066 10.883-1.466 19.327-6.168 29.117a299 299 0 0 0-2 5l2.203.801c4.552 1.951 8.322 4.674 11.797 8.199 1.25 3.625 1.25 3.625 1 7-5.289 10.237-16.03 16.022-26 21h-2l-2 6-1-4-16 8 5 5 3 3c-2.267 1.231-2.267 1.231-5 2-1.844-1.521-1.844-1.521-3.723-3.703-2.363-1.99-2.363-1.99-5.277-3.297-6.158.742-11.688 3.001-17.437 5.25-2.309.858-4.621 1.702-6.934 2.546a753 753 0 0 0-4.626 1.707c-7.521 2.775-15.179 4.901-22.927 6.941-2.201.59-4.393 1.209-6.584 1.837C859.978 982.013 835.298 985.618 811 988l-3.816.398c-25.888 2.22-65.193 5.468-87.688-10.871-2.735-2.792-3.483-4.876-3.558-8.777 2.535-8.95 10.527-14.009 18.062-18.75l2.115-1.353c6.519-4.06 13.241-7.196 20.323-10.147l3.415-1.437c9.55-3.951 19.214-7.227 29.147-10.063 0-2.269-.027-4.539-.141-6.805-.223-6.265-.326-10.365 4.141-15.195 5.875-5.566 12.249-6.345 20-7l-2.437-2.812c-3.59-4.142-3.722-7.671-3.75-13.063l-.043-3.68c.22-3.288.813-5.499 2.23-8.445l-2-2c.19-5.17 2.058-7.839 5.375-11.687l2.398-2.825c1.283-1.433 2.593-2.844 3.973-4.183 1.588-1.653 1.87-3.078 2.254-5.305l-2.09-.312c-15.59-3.684-31.918-16.535-40.828-29.473-4.665-7.702-6.343-13.049-5.082-22.215 4.184-12.996 13.494-26.869 24.137-35.293 2.228-2.042 3.706-4.245 5.363-6.769 4.464-6.682 9.64-10.939 17.5-12.938 3.415-.251 6.827-.267 10.25-.312 8.095-.271 13.981-.963 20.75-5.688a1891 1891 0 0 1 6.813-4.437l1.799-1.181c13.32-8.631 36.34-19.36 51.841-9.792m-59.172 20.43c-8.147 4.917-15.122 5.413-24.504 5.419-7.768.164-12.918 2.06-18.777 7.186-2 2.375-2 2.375-2 4.375l3.813.75c2.877.717 3.984 1.047 6.125 3.188 2.703 5.247 2.838 10.222 1.308 15.82-2.173 6.256-4.314 11.729-9.433 16.117-3.998 1.599-7.573 1.956-11.813 1.125-4.755-3.642-6.657-6.944-7.625-12.75L789 774c-3.56 3.159-5.629 6.65-7.687 10.875l-.932 1.816c-1.862 3.756-2.904 7.149-3.381 11.309 88.27 26.865 88.27 26.865 116 13v-4c2.438 1.188 2.438 1.188 5 3 .813 2.688.813 2.688 1 5-2 0-2 0-4-2l-2.012.84-2.675 1.098-2.637 1.089c-21.38 7.772-49.725-.442-71.113-4.902l-2.411-.499c-9.395-1.96-18.623-4.203-27.789-7.058-2.907-.898-5.299-1.568-8.363-1.568 1.374 10.465 11.09 18.825 19 25 13.182 9.853 28.551 16.505 44.762 19.43L844 847l1 2h-10l2 4.438c2.732 7.854 2.188 15.704 1.764 23.927-.103 2.951-.175 5.71.236 8.635 2.484 2.547 2.484 2.547 5 4 .313 3.25.313 3.25 0 6h-2l1 3c.128 2.674.044 5.321 0 8l-2.437.75C838 909 838 909 837.188 911.125L837 913c-8.986.457-8.986.457-13-3-1.54-2.272-2.749-4.544-4-7-15.397-.577-15.397-.577-21 3-2.812 2.767-5.853 5.793-6.125 9.883.321 5.763 1.881 9.178 5.898 13.328 5.811 4.668 13.062 7.038 20.227 8.789l-1 6h-2v6l3.375 1.625c3.071 1.725 3.555 2.217 5.063 5.625L825 960c5.182-.486 8.62-1.636 13.063-4.312 4.631-2.619 8.844-4.382 14-5.688 10.656-2.788 19.041-8.855 27.757-15.398C882 933 882 933 884 932l-1.375 2.25A99 99 0 0 0 879 941c9.155 3.788 18.964 4.826 28.438 1.375 8.637-4.078 13.132-9.48 16.562-18.375 1.44-4.739 2.095-9.044 2-14l-2.379.621C918.09 912.04 912.676 913.355 907 914l2 7-1.871-1.574c-9.266-7.63-15.425-12.309-27.82-11.856-4.476.582-7.566 2.013-11.309 4.43l-6 3c2.185-5.398 4.908-9.164 10-12 3.432-.907 6.869-1.533 10.359-2.176 9.349-2.116 17.4-6.631 22.641-14.824v-2l-2.117-.77-2.758-1.042-2.742-1.02C895 880 895 880 893 877c-3.125-.187-3.125-.187-6 0v3h-2v2h-2v3h-3v2l-1.812.438c-1.75.449-3.475.991-5.188 1.562-8.217.261-8.217.261-12-1v-5l1 4c8.534.817 15.092-1.04 21.82-6.469L885 879l-.562-3.187c-.572-4.98 1.035-7.638 3.562-11.813-3.403 1.059-6.014 2.009-9 4-2.445.48-2.445.48-5 0-2.055-2.449-2.055-2.449-3.875-5.687l-1.867-3.2c-1.352-3.345-1.37-4.745-.258-8.113l3.438-.437C875 850 875 850 876 849a99 99 0 0 1 5 0l-2.59.805-3.347 1.07-3.34 1.055C869 853 869 853 868 855l2.313 2.25c2.126 2.176 3.943 4.272 5.687 6.75 4.835-.538 8.423-2.812 12.438-5.375l2.108-1.326c5.597-3.59 10.832-7.549 15.936-11.806 4.937-4.067 4.937-4.067 8.518-4.493l.113-1.758c.654-7.765 2.588-12.098 8.262-17.554 6.663-6.436 11.111-14.027 11.961-23.387.14-14.319-3.472-22.92-12.336-34.301-6.199-8.411-6.734-17.11-7.768-27.234-1.387-12.327-1.387-12.327-6.97-17.114-17.996-9.116-41.486 6.429-55.981 16.368" style="fill:#131d14"/><path d="M778 802a140 140 0 0 1 16.188 3.813C824.802 814.696 865.272 825.464 896 813l1 2h2v-6c2.639-1.414 5.071-2.372 8-3v2h5l1 3h2l1 5h3l1 6c-3.375-.547-5.082-1.055-8-3h-4c-1.625 2-1.625 2-3 4h-2l.141 2.23.109 2.958.141 2.917c-.539 3.995-1.35 5.185-4.391 7.895-3.854 1.865-7.835 3.278-11.875 4.688l-3.262 1.181c-4.019 1.45-8.02 2.884-12.121 4.085C869 850 869 850 867.434 852.727c-.563 4.248.438 6.005 2.629 9.648l1.847 3.211C874 868 874 868 876.516 868.48c2.524-.488 4.044-1.132 6.172-2.542L886 864l2 1-2.062 3.063c-1.865 3.171-1.979 3.701-1.313 7.562L885 879c-4.166 4.583-9.343 7.754-15.668 8.18-2.452.007-4.884-.047-7.332-.18l-1-4v5c4.535 1.512 9.893 1.911 14.313 0l1.687-1h3v-2h3v-3h2v-2h2v-3c2.875-.187 2.875-.187 6 0l2 3c2.383 1.168 2.383 1.168 5.125 2.188l2.758 1.042L905 884c-4.274 8.814-9.927 12.507-19 16-2.752.716-5.53 1.292-8.312 1.875-6.143 1.309-9.843 3.082-13.622 8.223C863 912 863 912 862 915l2.5-1.25L868 912l1.688-1.09c6.368-3.857 13.065-4.08 20.312-2.91 7.263 2.979 13.294 7.683 19 13l-2-7q3.343-.72 6.688-1.437l3.761-.809A581 581 0 0 1 926 910c-.419 9.664-2.387 19.265-9.223 26.5-8.797 7.425-17.587 8.234-28.777 7.5-3.213-.74-5.941-1.734-9-3 1.524-3.1 3.198-6.052 5-9q-1.939 1.279-3.875 2.563l-2.504 1.656a151 151 0 0 0-5.023 3.562c-7.41 5.476-15.191 8.889-23.973 11.594-5.449 1.706-10.379 4.509-15.391 7.199-3.112 1.372-4.897 1.758-8.234 1.426l-1.125-3.312c-1.355-3.234-1.852-3.674-5.062-5.625L816 950v-6h2l1-6-2.344-.699C807.514 934.438 799.3 931.352 794 923c-1.463-4.784-1.575-7.89.75-12.375L797 908l1.375-1.75c5.202-4.002 12.137-3.896 18.402-3.844 3.223.594 3.223.594 5.102 2.313 1.246 2.156 1.246 2.156 2.129 4.336 1.282 2.514 2.355 3.024 4.992 3.945 2.141.195 2.141.195 4.25.125L837 913l.188-1.875C838 909 838 909 840.563 907.75L843 907l.063-3.812.035-2.145C843 899 843 899 842 896h2c.313-2.75.313-2.75 0-6l-2.512-1.445c-2.992-3.072-2.843-3.906-2.871-8.063q.092-3.31.258-6.617c.391-8.948.203-16.72-3.875-24.875h10l-1-2a124 124 0 0 0-7-1.687c-22.35-5.261-43.41-16.784-56.723-35.954-1.342-2.479-1.878-4.582-2.277-7.359" style="fill:#34baa3"/><path d="M977 910c5.436 2.783 9.933 5.408 14 10-1.544 6.367-7.162 10.173-12.427 13.562a239 239 0 0 1-7.948 4.376l-2.949 1.573c-49.882 26.318-113.747 44.589-170.406 44.657l-3.011.01q-3.135.007-6.27.007c-3.151.002-6.301.021-9.452.04-14.029.04-27.439-.674-41.099-4.162l-3.879-.965c-4.424-1.365-8.256-2.795-11.559-6.098v-3c16.278-4.513 32.6-8.628 49.08-12.334a657 657 0 0 0 8.19-1.928l2.386-.575q2.137-.518 4.272-1.047c3.174-.765 5.77-1.116 9.072-1.116v-2c-10.337 1.689-20.481 3.737-30.62 6.385-4.868 1.258-9.751 2.462-14.63 3.678l-5.891 1.472-2.888.719a959 959 0 0 0-6.27 1.597l-3.248.833-2.948.763C726 967 726 967 723 967c5.522-13.166 27.168-20.983 39.549-26.101 6.214-2.491 12.497-4.781 18.826-6.961l2.684-.944c7.814-2.602 7.814-2.602 11.941-.994 1.852 1.051 1.852 1.051 3.625 2.313 4.791 3.157 9.952 4.903 15.375 6.687l-.945 1.875c-1.913 3.854-1.913 3.854-2.055 6.125 2.318 3.005 4.227 4.461 8 5l.375 3.375C821 961 821 961 823 963c7.383 1.273 12.333-1.389 18.698-4.798a77.4 77.4 0 0 1 14.177-5.827c5.646-1.739 10.169-3.911 14.977-7.336 4.08-1.973 8.163.254 12.273 1.524 10.006 2.722 20.544 2.326 29.863-2.618 1.802-1.178 3.486-2.419 5.012-3.945 1.94-.314 3.882-.622 5.828-.899 21-3.04 39.709-12.435 53.172-29.101" style="fill:#ce9b6b"/><path d="M866 851h2l-.695 2.105c-.415 3.943.839 5.814 2.82 9.208l1.82 3.238C874 868 874 868 876.512 868.484c2.524-.491 4.047-1.136 6.176-2.546L886 864l2 1-2.062 3.063c-1.865 3.171-1.979 3.701-1.313 7.562L885 879c-4.166 4.583-9.343 7.754-15.668 8.18-2.452.007-4.884-.047-7.332-.18l-1-4v5c4.535 1.512 9.893 1.911 14.313 0l1.687-1h3v-2h3v-3h2v-2h2v-3c2.875-.187 2.875-.187 6 0l2 3c2.383 1.168 2.383 1.168 5.125 2.188l2.758 1.042L905 884c-4.274 8.814-9.927 12.507-19 16-2.752.716-5.53 1.292-8.312 1.875-6.143 1.309-9.843 3.082-13.622 8.223C863 912 863 912 862 915l2.5-1.25L868 912l1.688-1.09c6.368-3.857 13.065-4.08 20.312-2.91 7.263 2.979 13.294 7.683 19 13l-2-7q3.343-.72 6.688-1.437l3.761-.809A581 581 0 0 1 926 910c-.419 9.664-2.387 19.265-9.223 26.5-8.797 7.425-17.587 8.234-28.777 7.5-3.213-.74-5.941-1.734-9-3 1.524-3.1 3.198-6.052 5-9q-1.939 1.279-3.875 2.563l-2.504 1.656a151 151 0 0 0-5.023 3.562c-7.41 5.476-15.191 8.889-23.973 11.594-5.449 1.706-10.379 4.509-15.391 7.199-3.112 1.372-4.897 1.758-8.234 1.426l-1.125-3.312c-1.355-3.234-1.852-3.674-5.062-5.625L816 950v-6h2l1-7c7.935-2.898 15.626-4.872 24-6-5.39-6.319-12.85-10.012-20.625-12.687L819 917l-1-3c11.434.738 19.342 4.555 28 12l2.313-2.312L854 918l-.937-1.687c-1.121-2.438-1.623-4.675-2.063-7.313l-4-1c-.947-3.702-1.304-5.391.438-8.875L849 897l-1-1c-.436-3.229-.306-4.576 1.625-7.25 2.82-2.078 4.949-2.281 8.375-2.75l-.141-3.805c-.451-17.37-.451-17.37 4.141-25.195l1.086-1.926c1.039-1.699 1.039-1.699 2.914-4.074" style="fill:#41b19c"/><path d="M922 754c13.754 5.23 25.422 15.366 36.074 25.285C960 781 960 781 962 782a787 787 0 0 1 3 5q1.33 1.76 2.688 3.5c7.753 10.223 15.298 21.898 18.312 34.5-5.957 5.647-10.495 9.249-18.75 10.625-6.639-.22-12.422-5.357-17.402-9.352C948 825 948 825 945.188 824.938c-3.7 1.233-5.634 2.982-8.481 5.562-5.54 4.868-10.694 4.874-17.707 4.5v5c10.293-.215 18.266-3.04 26-10 4.468 1.631 7.959 3.926 11.816 6.66 5.242 3.216 11.637 3.092 17.524 1.844 5.339-1.616 9.29-4.063 13.66-7.504 4.972 11.839 6.539 23.853 6.438 36.625l-.015 3.94c-.165 10.854-1.667 20.964-4.423 31.435q-.569 2.27-1.133 4.539L988 911l-8-4c.636-3.943 1.874-7.235 3.5-10.875 1.888-4.477 3.242-8.229 3.5-13.125l.188-2.961c.375-10.063-1.853-18.075-8.188-26.039-6.069-6.466-12.634-9.028-21.437-9.5-6.798.219-12.375 2.608-17.415 7.18-1.535 1.701-2.857 3.428-4.148 5.32l-1.875 2.688c-2.408 7.089-2.12 14.026 1.063 20.812 2.891 5.096 6.408 8.236 11.812 10.5 2.656.23 2.656.23 5.5.188l2.844-.02A29 29 0 0 0 962 890c-5.662 7.704-12.594 12.01-22 14a146 146 0 0 1-5 0l-.48-3.016c-3.008-18.264-6.481-38.121-15.957-54.296-2.078-3.997-2.024-7.672-1.434-12.083 1.552-4.641 5.086-6.759 8.871-9.605 7.528-7.266 12.347-17.118 13.336-27.543.138-12.919-2.439-21.682-10.363-31.902C922 756.525 922 756.525 922 754" style="fill:#a0d7e0"/><path d="M919 762c6.568 2.595 10.194 9.648 13.406 15.609 3.868 9.118 4.399 20.537.969 29.891-3.009 6.303-7.124 11.363-12.125 16.188-5.242 5.138-5.664 10.239-6.25 17.312l-1.609.191c-3.445 1.166-5.888 3.45-8.641 5.747a168 168 0 0 1-16.312 11.687l-2.019 1.289c-3.436 2.122-6.379 3.636-10.419 4.086l-1.242-1.68-1.633-2.195-1.617-2.18C870 856 870 856 868 854c4.289-1.887 8.528-3.582 13-5-2.771-.154-4.565-.224-7.062 1.063-2.437 1.178-3.414.687-5.938-.063a1058 1058 0 0 1 21.125-8.25l2.898-1.102L899 838v-2h3l.043-2.668c.439-10.68.439-10.68 3.145-13.707 2.812-1.625 2.812-1.625 6-1.562C914 819 914 819 916 821c2.125.625 2.125.625 4 1l-1-6h-3l-1-5h-2l-1-2c-2.562-.625-2.562-.625-5-1v-2l-3.312 1.5C900 809 900 809 897 809c-2.187-1-2.187-1-4-2v4c-21.21 8.268-47.177 3.587-69-1v-1c8.309-.19 16.481.452 24.744 1.227 2.279.213 4.558.416 6.838.619l4.356.4 3.964.365C867 812 867 812 869 813v-2l3.813.063c6.388 0 13.094-.032 19.187-2.063v-3l4-2q-2.692-.002-5.383.035c-5.969.06-11.698-.259-17.617-1.035l1-3 3 1c8.022.669 14.222.462 21-4l2.227-1.344c5.397-3.28 5.397-3.28 6.773-4.656.395-1.846.742-3.702 1.063-5.562l.535-3.067L909 780c1.84-.617 1.84-.617 4-1 2.563 1.875 2.563 1.875 5 4l3 1v2h2v2h2v11c-4-1-4-1-6-2v3h9a1571 1571 0 0 0-.437-5.75l-.247-3.234c-.257-2.453-.634-4.655-1.316-7.016h-4v-2l-2.312-.875C917 780 917 780 914 778c-.293-2.383-.293-2.383-.187-5.125l.082-2.758L914 768h2l.938-2.437C918 763 918 763 919 762m-6 79c8.949 11.599 8.949 11.599 8 19h2l1 6h2v3l3 1c.784 1.727.784 1.727 1.352 3.98l.639 2.511.634 2.697.663 2.723c1.715 7.368 2.574 14.513 2.712 22.089h-2l-1-7-1 7h-2l-1 3-1.793.148-2.394.227-2.356.211C919 908 919 908 916.563 908.98c-5.212 2.074-11.649 3.224-16.946 1.036-1.947-1.259-3.77-2.617-5.617-4.016-1.645-.719-3.302-1.416-5-2 4.546-3.599 9.478-7.159 15-9 1.063-1.812 1.063-1.812 2-4l2-4 7 1c2.15-9.06 2.209-17.758 2-27l-2-1 .105 2.238c.199 7.441-.77 13.702-3.105 20.762-6.455-2.058-12.73-4.436-19-7q-2.5-1.002-5-2c.672-3.806 1.727-7.352 3-11l-2-1 2.273-1.469c19.57-12.816 19.57-12.816 21.727-19.531" style="fill:#44ab93"/><path d="m797.852 933.051 1.773 1.262c4.791 3.157 9.952 4.903 15.375 6.687l-.945 1.875c-1.913 3.854-1.913 3.854-2.055 6.125 2.318 3.005 4.227 4.461 8 5l.375 3.375C821 961 821 961 823 963c8.399 1.448 14.333-2.287 21.523-6.152 11.15-5.926 26.711-2.555 38.915-1.348l4.564.434q5.5.522 10.998 1.066c-26.813 17.875-84.821 20.339-115.812 20.063l-3.002-.014q-3.594-.018-7.186-.049l1.5-1.875C776 973 776 973 776 971c5.734-2.977 11.544-5.488 17.559-7.852C796 962 796 962 797 960h-9v-2l-20 2v2l-7-1v-1q6.248-1.478 12.5-2.937l3.555-.842c5.978-1.394 11.833-2.623 17.945-3.221v-2c-10.337 1.689-20.481 3.737-30.62 6.385-4.868 1.258-9.751 2.462-14.63 3.678l-5.891 1.472-2.888.719a959 959 0 0 0-6.27 1.597l-3.248.833-2.948.763C726 967 726 967 723 967c5.522-13.166 27.168-20.983 39.549-26.101 6.214-2.491 12.497-4.781 18.826-6.961l2.684-.944c5.202-1.732 8.787-2.784 13.793.057" style="fill:#e59d53"/><path d="m802 747 2 2c-2.612 3.999-5.013 7.143-8.75 10.125-9.845 8.346-19.52 23.631-21.922 36.465-.427 10.166 3.5 16.067 9.985 23.473q1.828 1.982 3.687 3.937c-5.554 6.091-12.601 12.045-21.062 12.438-7.945-.063-12.473-4.311-18.25-9.25-2.414-1.965-3.658-2.838-6.688-3.188l-1 3c-1.891 1.754-1.891 1.754-4.25 3.563l-2.328 1.816c-4.52 3.026-8 3.873-13.422 3.621 2.83-17.612 13.519-36.51 25-50h2l.809-1.781c3.925-7.311 11.455-12.033 18.066-16.719l2.309-1.639C773.739 761 773.739 761 776 761v-2c17.149-8.766 17.149-8.766 26-12" style="fill:#c3e6eb"/><path d="M786 861c3.666 1.672 6.26 3.873 9.219 6.563 4.02 3.244 7.669 3.847 12.781 4.437l-.105 3.508q-.043 2.308-.082 4.617l-.077 2.305c-.088 6.823 1.963 11.245 6.264 16.57-2.394.473-4.783.903-7.187 1.313l-2.042.416c-2.001.322-2.001.322-5.771.271-2.828-2.309-2.828-2.309-5-5-2.562-2.375-2.562-2.375-5-4-3.821.31-5.704 2.346-8.375 4.938-5.268 4.804-9.349 6.553-16.621 6.304-6.556-.792-10.467-4.25-15.012-8.719-2.452-1.875-3.897-2.457-6.992-2.523-2.465 1.547-2.465 1.547-4.937 3.75-5.558 4.709-9.52 7.789-17.063 7.25-3.043-10.582-4.149-19.983-4-31l2.055-.043c9.477-.486 16.849-3.571 23.945-9.957 4.524 1.463 7.38 3.983 11 7 6.391 3.201 14.721 3.289 21.516 1.242 4.309-2.089 9.3-4.874 11.484-9.242" style="fill:#5fb5c3"/><path d="M742 830c3.411.353 5.687 1.988 8.438 3.938 7.083 5.014 12.975 5.826 21.562 5.062 2.62-.734 4.565-1.708 7-3q2.496-1.011 5-2v-2c2-1.375 2-1.375 5-2 2.935 1.663 5.424 3.835 8 6 3.06 2.239 4.247 3.031 8.063 2.875 5.873.186 10.652 2.695 15.937 5.125-.48 4.585-2.116 6.574-5.312 9.813-3.946 4.19-6.44 7.91-8.688 13.187-4.554-.552-8.317-2.318-12-5l-2.062-2.687C791 857 791 857 788.195 856.086 785 856 785 856 782.402 857.801l-2.464 2.512c-4.597 4.625-8.135 6.955-14.75 7.062-6.786-.151-11.157-2.598-16.188-7-2-2.375-2-2.375-2-4.375-3.529-.309-5.392-.427-8.344 1.645l-2.156 2.168c-5.154 4.845-8.664 7.324-15.875 7.375A210 210 0 0 1 716 867c-.383-18.34-.383-18.34 2-27l2.273-.227c8.514-1.093 15.555-3.601 21.727-9.773" style="fill:#88ccd6"/><path d="M974.75 854.625c6.998 7.387 8.721 16.428 8.523 26.25-.517 10.916-4.365 19.812-11.273 28.125l-2.078 2.707c-10.582 12.867-26.291 20.829-42.734 23.043L924 935c2-6 2-6 2.766-7.98 2.333-6.279 2.907-12.355 3.234-19.02l3.367-.262c8.783-.788 16.094-1.798 23.633-6.738l2.75-1.687c6.397-6.575 10.232-14.687 10.625-23.813-.107-4.944-.871-7.812-4.375-11.5-3.492-2.406-5.371-3.011-9.625-2.937-3.666 1.018-5.05 1.986-7.375 4.937-1.42 2.841-1.315 4.855-1 8 1.625 2.375 1.625 2.375 4 4 3.25.25 3.25.25 6 0l2-6h-3l-1 3-4-1c-.889-2.91-1.222-4.453-.062-7.312 2.621-2.145 4.777-2.327 8.121-2.118 1.941.43 1.941.43 4.441 2.243 2.22 4.717 2.544 9.075 1.5 14.187-2.1 2.933-4.789 4.395-8 6-5.202.518-9.636.62-14.437-1.562-5.248-4.992-6.82-8.654-7.188-15.813.22-6.6 1.984-10.924 6.625-15.625 10.468-8.082 21.217-5.599 31.75.625" style="fill:#56af93"/><path d="M866 851h2l-.695 2.105c-.415 3.943.839 5.814 2.82 9.208l1.82 3.238C874 868 874 868 876.512 868.484c2.524-.491 4.047-1.136 6.176-2.546L886 864l2 1-2.062 3.063c-1.865 3.171-1.979 3.701-1.313 7.562L885 879c-4.166 4.583-9.343 7.754-15.668 8.18-2.452.007-4.884-.047-7.332-.18l-1-4v5c4.535 1.512 9.893 1.911 14.313 0l1.687-1h3v-2h3v-3h2v-2h2v-3c2.875-.187 2.875-.187 6 0l2 3c2.383 1.168 2.383 1.168 5.125 2.188l2.758 1.042L905 884c-4.274 8.814-9.927 12.507-19 16-2.752.716-5.53 1.292-8.312 1.875-6.143 1.309-9.843 3.082-13.622 8.223C863 912 863 912 862 915l2 1c-8.887 8.887-8.887 8.887-10.478 10.474a594 594 0 0 0-4.167 4.233c-4.416 4.3-7.531 5.798-13.605 7.231-13.873 3.481-13.873 3.481-17.75 8.812l-1 2.25 3.813-.375 2.144-.211C825 948 825 948 828 946c2.688-.125 2.688-.125 5 0-1.559 3.827-4.032 6.18-7 9l-2 2-.625-1.812c-1.884-2.998-4.186-3.802-7.375-5.188v-6h2l1-7c7.935-2.898 15.626-4.872 24-6-5.39-6.319-12.85-10.012-20.625-12.687L819 917l-1-3c11.434.738 19.342 4.555 28 12l2.313-2.312L854 918l-.937-1.687c-1.121-2.438-1.623-4.675-2.063-7.313l-4-1c-.947-3.702-1.304-5.391.438-8.875L849 897l-1-1c-.436-3.229-.306-4.576 1.625-7.25 2.82-2.078 4.949-2.281 8.375-2.75l-.141-3.805c-.451-17.37-.451-17.37 4.141-25.195l1.086-1.926c1.039-1.699 1.039-1.699 2.914-4.074" style="fill:#0a281e"/><path d="M743 897c3.864 1.803 6.73 4.264 10 7 5.728 4.065 11.202 3.726 18 3 4.841-1.334 8.546-3.455 12.25-6.812C786 898 786 898 788.625 897.875c3.065 1.452 4.465 3.366 6.375 6.125l-1.937 2.375c-3.002 3.821-3.2 5.688-3.188 10.5l-.008 3.18c.114 2.522.48 4.532 1.133 6.945l-2.376.791C773.43 932.873 758.471 938.065 744 945c-9.464-9.049-20.017-23.712-22-37l2.563-.629c7.716-2.096 12.967-4.487 18.437-10.371" style="fill:#4ea7bb"/><path d="M898 718c-.203 1.875-.203 1.875-1 4-2.109 1.125-2.109 1.125-4.75 2-4.09 1.472-6.952 3.114-10.25 6h-2l.25 3.625c0 5.337-2.282 8.407-6 12.125-3.288 1.827-6.577 2.454-10.25 3.25v3h-2l-.312 1.813C861 756 861 756 859.648 757.293c-2.107 2.183-3.301 4.524-4.71 7.207-4.379 8.288-4.379 8.288-7.25 9.375-4.178 1.749-6.74 4.776-9.313 8.438L837 784h-3v2c-2.789 1.394-4.921 1.257-8 1-2.43-3.644-2.238-5.222-2.187-9.562l.019-2.034c.157-11.139.689-22.275 1.168-33.404l3.184-.078q2.127-.085 4.254-.172l2.083-.043c9.312-.433 16.557-5.186 24.229-10.082 12.452-7.757 24.237-14.171 39.25-13.625" style="fill:#cb9c50"/><path d="m846.188 860.625 2.23-.086C851 861 851 861 858 865v21l-7 3c-2 2-2 2-2.125 4.438L849 896c0 3 0 3-2 6 .375 3.188.375 3.188 1 6l3 1c2.218 3.696 3 5.63 3 10-1.531 2.141-1.531 2.141-3.5 4.25l-1.969 2.141L847 927l-1.723-1.172A739 739 0 0 0 838 921l-3.25-2.187c-5.084-2.887-11.079-3.687-16.75-4.813 2.495 2.944 5.048 3.968 8.625 5.313 5.547 2.23 10.83 4.736 15.375 8.687l1 3-1.621.443q-3.627.995-7.254 1.995l-2.551.697-2.441.674-2.254.618C825 936 825 936 823 937c-9.433.389-17.704-2.782-25.055-8.637-3.539-3.632-4.929-7.159-5.187-12.218.393-3.481 2.006-5.536 4.242-8.145l1.375-1.75c5.202-4.002 12.137-3.896 18.402-3.844 3.223.594 3.223.594 5.102 2.313 1.246 2.156 1.246 2.156 2.129 4.336 1.282 2.514 2.355 3.024 4.992 3.945 2.141.195 2.141.195 4.25.125L837 913l.188-1.875C838 909 838 909 840.563 907.75L843 907l.063-3.812.035-2.145C843 899 843 899 842 896h2c.313-2.75.313-2.75 0-6l-2.523-1.477c-2.964-3.02-2.831-3.783-2.817-7.875q.162-3.139.403-6.273l.162-3.219c.629-10.422.629-10.422 6.963-10.531" style="fill:#4ab09b"/><path d="M945 830c4.468 1.631 7.959 3.926 11.816 6.66 5.242 3.216 11.637 3.092 17.524 1.844 5.339-1.616 9.29-4.063 13.66-7.504 4.972 11.839 6.539 23.853 6.438 36.625l-.015 3.94c-.165 10.854-1.667 20.964-4.423 31.435q-.569 2.27-1.133 4.539L988 911l-8-4c.636-3.943 1.874-7.235 3.5-10.875 1.888-4.477 3.242-8.229 3.5-13.125l.188-2.961c.375-10.063-1.853-18.075-8.188-26.039-6.069-6.466-12.634-9.028-21.437-9.5-6.798.219-12.375 2.608-17.415 7.18-1.535 1.701-2.857 3.428-4.148 5.32l-1.875 2.688c-2.408 7.089-2.12 14.026 1.063 20.812 2.891 5.096 6.408 8.236 11.812 10.5 2.656.23 2.656.23 5.5.188l2.844-.02A29 29 0 0 0 962 890c-5.662 7.704-12.594 12.01-22 14a146 146 0 0 1-5 0l-.48-3.016c-3.058-18.566-6.837-37.941-15.957-54.609-1.736-3.749-1.735-5.47-.563-9.375l1 3c10.293-.215 18.266-3.04 26-10" style="fill:#8bc9d1"/><path d="M824 845h8l2 7h2c3.866 10.447 4.691 23.105 2 34-3.815 1.467-6.29.433-10-1v-2h-2l-3-9-1 1c.371 4.35 1.205 8 3.938 11.438 4.486 2.288 9.102 2.902 14.062 3.562v4h-5c1.37 3.161 1.989 3.993 5 6 .188 2.625.188 2.625 0 5-3.485-.645-6.028-2.101-9-4l1.5 2.813C834 907 834 907 834 910c-3.876-.221-4.94-.937-7.687-3.812-1.736-2.393-3.17-4.486-4.313-7.188l-3 1v2h-13c2-3 2-3 4.625-3.687L813 898l-2.437-2.812c-3.59-4.142-3.722-7.671-3.75-13.063l-.043-3.68c.22-3.288.813-5.499 2.23-8.445l-2-2c.203-5.12 2.038-7.925 5.25-11.812l2.328-2.895c2.587-2.449 3.928-3.014 7.422-3.293v-2h2z" style="fill:#19160e"/><path d="M913 845c3.78 3.409 5.042 7.448 6.813 12.125l1.05 2.772c2.683 7.341 4.789 14.762 6.637 22.353l.773 3.133c1.393 6.022 1.983 11.439 1.727 17.617-9.04 4.681-17.518 8.748-28 8-3.032-1.264-5.397-3.028-8-5-1.645-.719-3.302-1.416-5-2 4.546-3.599 9.478-7.159 15-9 1.063-1.812 1.063-1.812 2-4l2-4 7 1c2.15-9.06 2.209-17.758 2-27l-2-1 .105 2.238c.199 7.441-.77 13.702-3.105 20.762-6.455-2.058-12.73-4.436-19-7q-2.5-1.002-5-2c.672-3.806 1.727-7.352 3-11l-2-1 2.203-1.434C898.694 855.64 905.884 850.451 913 845" style="fill:#cf784a"/><path d="M746 801c2.635 1.414 5.136 2.945 7.633 4.59 3.945 2.35 7.379 2.586 11.93 2.66l2.878.078c2.934-.376 3.771-1.04 5.559-3.328l.813 1.652C778.075 812.93 782.132 817.89 787 823c-5.554 6.091-12.601 12.045-21.062 12.438-7.945-.063-12.473-4.311-18.25-9.25-2.414-1.965-3.658-2.838-6.688-3.188l-1 3c-1.891 1.754-1.891 1.754-4.25 3.563l-2.328 1.816c-4.52 3.026-8 3.873-13.422 3.621.993-6.178 2.934-11.552 5.438-17.25l.91-2.076c2.894-6.451 4.931-10.987 11.617-13.936 3.084-1.118 4.769-1.391 8.035-.738" style="fill:#a2d8e1"/><path d="m820 954 .375 3.375C821 961 821 961 823 963c8.399 1.448 14.333-2.287 21.523-6.152 11.15-5.926 26.711-2.555 38.915-1.348l4.564.434q5.5.522 10.998 1.066c-26.813 17.875-84.821 20.339-115.812 20.063l-3.002-.014q-3.594-.018-7.186-.049c2.767-3.007 5.28-4.872 8.965-6.621l2.906-1.389 3.067-1.427 3.13-1.479c6.351-2.97 12.702-5.738 19.311-8.084 2.913-1.111 6.555-4 9.621-4" style="fill:#f6e8b5"/><path d="m825 742-.016 3.824q-.025 7.005-.039 14.01-.008 3.036-.02 6.071-.018 4.356-.023 8.712l-.015 2.753-.001 2.547-.006 2.248C825 784 825 784 826 786h8v-2h3l.688-1.687c2.426-4.276 5.745-7.452 10.312-9.313.52 5.365.52 5.365-1.828 8.23l-2.422 1.958-2.391 1.98L839 787l-2.172 1.738C835 790 835 790 833 790l2.063 1.75L837 794c-.25 2.25-.25 2.25-1 4h-2v2h-5l1-9c-3 2-3 2-4 4.063-1 1.937-1 1.937-4 2.937l-.812-2.437L820 793l-3-1 1.438 2.875L821 800h-9v2l-2 1 6 1v2h8l-1 3c-5.322-.587-10.366-1.468-15.57-2.777l-2.075-.52q-2.151-.54-4.301-1.087-3.27-.83-6.542-1.645c-5.904-1.487-11.754-2.978-17.512-4.971.867-6.284 2.875-11.057 6-16.5l1.08-1.889c2.645-4.474 2.645-4.474 4.92-5.611l.297 1.758c1.02 5.33 2.301 8.99 5.703 13.242 3.46 1.73 7.21 1.343 11 1 5.261-1.913 7.569-6.205 10-11 3.003-6.867 4.492-13.163 1.688-20.375C816 756 816 756 813 754c-1.99-.39-3.99-.732-6-1 1.409-3.365 2.997-5.057 5.938-7.187l2.089-1.543c3.36-2.163 6.077-2.375 9.973-2.27" style="fill:#42b59d"/><path d="M972 847c8.102 5.757 14.138 13.036 16 23 .689 11.818-.902 21.386-6 32a299 299 0 0 0-2 5l2.313.875C985 909 985 909 988 911c.688 2.625.688 2.625 1 5-4.385-.501-6.8-1.983-10-5v-2c-1.937.375-1.937.375-4 1l-1 2h-2l-.812 1.938C970 916 970 916 967 917l-1 3c-1.996 2.883-3.123 3.023-6.687 3.688L956 924c1.843-1.919 3.701-3.757 5.766-5.437C971.948 910.225 980.241 898.301 982 885c.794-10.737-.153-18.68-5.75-27.875-5.513-5.207-12.363-7.449-19.84-7.34-5.299.473-9.174 2.171-13.222 5.59-4.906 5.887-5.729 9.855-5.54 17.453.599 5.405 2.424 8.361 6.415 12.11 5.021 1.816 10.944 2.352 15.949.195 1.826-1.212 3.437-2.582 4.988-4.133.152-1.766.222-3.54.25-5.312l.078-2.926c-.38-3.201-1.014-4.536-3.328-6.762-2.883-.725-4.973-.336-8 0-2 3-2 3-1.625 5.688L953 874h3l1-2h3c.125 2.375.125 2.375 0 5-2 2-2 2-4.812 2.438C952 879 952 879 949.125 876.875 947 874 947 874 946.438 871.063c.825-4.495 2.776-7.596 6.312-10.5 4.22-1.055 8.287-.716 12.031 1.484 3.708 2.944 5.859 5.652 6.59 10.328.223 8.821-2.285 16.88-7.621 24-3.541 3.38-7.317 6.492-11.75 8.625l-3-1c-2.399.087-4.795.24-7.187.438l-3.856.308L935 905v-1l2.965-.629c8.324-1.905 14.898-4.047 21.035-10.371l1-2-2 1c-6.707.79-11.817.45-17.352-3.582-5.116-4.401-8.151-9.544-9.007-16.219-.334-7.287.791-12.45 5.359-18.199 9.34-10.024 22.443-13.81 35-7" style="fill:#0a221b"/><path d="M977 910c5.436 2.783 9.933 5.408 14 10-1.35 4.419-3.261 6.343-7 9l-3-3-1.575.835c-14.545 7.646-29.338 14.118-44.765 19.771-3.625 1.381-7.163 2.9-10.719 4.449-23.408 9.546-45.393 6.405-69.941 2.945l1.793-.894a816 816 0 0 0 5.52-2.797l3.687-1.871 1.867-.959c7.672-3.878 7.672-3.878 11.981-2.702l3.215 1.161c10.129 3.259 18.971 2.833 28.937-.938 2.597-1.378 4.906-2.906 7-5 1.94-.314 3.882-.622 5.828-.899 21-3.04 39.709-12.435 53.172-29.101" style="fill:#e19d5d"/><path d="M891.102 760.684c5.482 2.91 9.496 7.628 11.898 13.316 1.015 6.284.199 11.06-3.504 16.242-4.081 4.796-7.723 7.295-14.012 8.067-6.304.297-10.015-.409-14.828-4.59-4.548-4.72-6.358-8.617-6.968-14.969.538-6.461 3.035-10.901 7.875-15.187 5.415-4.427 12.922-5.031 19.539-2.879" style="fill:#c9dea0"/><path d="M911.453 715.59c5.302 4.833 7.496 10.828 8.09 17.82l.318 3.252q.323 3.357.594 6.719c1.103 10.699 5.766 17.364 12.162 25.685 6.946 9.713 8.322 20.21 7.383 31.934-2.509 12.651-10.262 22.79-20 31h-2c-.845 7.946.565 12.976 4.398 19.926 2.6 4.989 5.602 11.347 5.602 17.074h-2v-3h-2l-1-6h-2l-.687-3.5c-.799-3.358-1.928-5.509-4-8.25-3-4.477-2.605-8.294-1.875-13.496 1.453-7.119 5.278-10.499 10.339-15.387 7.859-8.369 9.824-18.144 9.528-29.328-.598-10.579-5.972-17.908-12.305-26.039-6.199-8.411-6.734-17.11-7.768-27.234-1.398-12.426-1.398-12.426-6.474-16.618-8.611-3.585-20.342-1.492-28.758 1.852-8.937 3.884-17.326 8.575-25.396 14.03-6.749 4.541-11.443 5.25-19.416 5.095l-2.678-.027c-2.17-.024-4.34-.06-6.51-.098v-4l3.148-.043c13.053-.364 20.624-4.462 31.463-11.575 13.324-8.627 36.338-19.362 51.842-9.792" style="fill:#181a13"/><path d="M922 754c13.754 5.23 25.422 15.366 36.074 25.285C960 781 960 781 962 782a787 787 0 0 1 3 5 244 244 0 0 0 2.813 3.75c2.256 2.988 4.479 5.993 6.625 9.063l1.558 2.207L977 804c-1 3-1 3-3.242 4.156-5.773 1.766-11.222 1.889-16.848-.429-3.642-1.962-6.975-3.792-9.91-6.727-3.625.375-3.625.375-7 1l-.078-3.078c-.473-13.056-2.773-22.822-10.949-33.367C922 756.525 922 756.525 922 754" style="fill:#c0e5eb"/><path d="M884 910c2.169.506 4 1 6 2a191 191 0 0 1 2 7l1.125 2.688C894 924 894 924 894 928h2v4l7-1 4-10h2l-2-7q3.343-.72 6.688-1.437l3.761-.809A581 581 0 0 1 926 910c-.419 9.664-2.387 19.265-9.223 26.5-8.797 7.425-17.587 8.234-28.777 7.5-3.213-.74-5.941-1.734-9-3 1.152-2.468 2.048-4.048 4-6 .16-2.109.16-2.109.063-4.75-.136-6.788.384-13.488.937-20.25" style="fill:#3ab9a2"/><path d="m916 828 1 2-1 2c-.225 1.537-.408 3.08-.562 4.625l-.254 2.477L915 841l-1.609.191c-3.445 1.166-5.888 3.45-8.641 5.747a168 168 0 0 1-16.312 11.687l-2.019 1.289c-3.436 2.122-6.379 3.636-10.419 4.086l-1.242-1.68-1.633-2.195-1.617-2.18C870 856 870 856 868 854c4.289-1.887 8.528-3.582 13-5-2.771-.154-4.565-.224-7.062 1.063-2.437 1.178-3.414.687-5.938-.063a936 936 0 0 1 15.988-6.297c11.317-4.368 22.086-8.638 32.012-15.703m-3 13c8.949 11.599 8.949 11.599 8 19h2l1 6h2v3l3 1c.784 1.727.784 1.727 1.352 3.98l.639 2.511.634 2.697.663 2.723c1.715 7.368 2.574 14.513 2.712 22.089h-2l-1-7-1 7h-2l-1 3-3-2 5-2c-2.248-19.844-8.047-38.753-16-57h-2z" style="fill:#20150d"/><path d="m846.188 860.625 2.23-.086C851 861 851 861 858 865v21l-7 3c-2 2-2 2-2.125 4.438L849 896c0 3 0 3-2 6 .375 3.188.375 3.188 1 6l3 1c2.218 3.696 3 5.63 3 10-1.531 2.141-1.531 2.141-3.5 4.25l-1.969 2.141L847 927c-10.694-6.855-10.694-6.855-13-10 .25-2.25.25-2.25 1-4h2l.188-1.875C838 909 838 909 840.563 907.75L843 907l.063-3.812.035-2.145C843 899 843 899 842 896h2c.313-2.75.313-2.75 0-6l-2.523-1.477c-2.964-3.02-2.831-3.783-2.817-7.875q.162-3.139.403-6.273l.162-3.219c.629-10.422.629-10.422 6.963-10.531" style="fill:#b5e1d7"/><path d="m981 925 2 1c-24.314 20.964-64.333 30.616-94.945 38.464a315 315 0 0 0-6.18 1.696c-17.57 4.825-35.674 7.587-53.643 10.48q-2.949.477-5.898.964c-14.679 2.344-29.312 2.692-44.146 2.771l-2.717.025c-10.031.068-19.85-.36-29.795-1.736l-2.584-.352c-5.369-.82-10.068-2.246-15.092-4.312v-1c11.299.759 11.299.759 16.605 1.512C770.782 978.155 797.92 976.56 824 973l3.073-.406C859.487 968.21 890.96 960.16 922 950l3.135-1.012a316 316 0 0 0 51.171-21.74c1.536-.805 3.112-1.535 4.694-2.248" style="fill:#3b180b"/><path d="m912 840 2 1c-2.027 4.672-4.131 7.36-8.125 10.5l-2.937 2.336c-2.621 1.931-5.274 3.617-8.063 5.289-3.331 2.136-3.752 2.408-4.812 6.438L890 869a95 95 0 0 1-2 5l1.949.445c7.826 1.943 14.826 5.006 22.051 8.555 1.551-7.651 2.484-15.212 3-23l3 1c.444 20.112.444 20.112-3 27l-7-1-.687 2.188c-2.85 6.105-8.467 9.79-14.313 12.812-2.246.641-2.246.641-4 1 .553-3.315 1.236-5.42 3.961-7.488a895 895 0 0 1 4.773-2.922c3.37-2.365 5.111-5.115 7.266-8.59l-2.117-.551-2.758-.761-2.742-.739C895 881 895 881 893 878c-3.125-.687-3.125-.687-6-1v3h-2v2h-2v3h-3v2c-5.368 2.684-8.991 3.485-15 3l-5-2v-20h1l1 19c16.308-1.869 16.308-1.869 21-7v-4c.469-4.41 1.513-7.324 4-11l-1.574.875-2.113 1.125-2.075 1.125c-2.703 1.057-4.366 1.381-7.238.875-1.801-2.117-1.801-2.117-3.312-4.875l-1.551-2.742C868 859 868 859 868 857l-2-1c.5-2.312.5-2.312 2-5 5.07-3.105 10.211-3.31 16-3-3.07 2.047-5.691 2.997-9.187 4.125l-3.293 1.07L869 854l2.375 2.813c1.704 2.017 3.15 3.975 4.625 6.187 4.835-.538 8.423-2.811 12.438-5.375l2.101-1.326c7.415-4.767 15.205-10.043 21.461-16.299" style="fill:#330d05"/><path d="M888 879c6.182.538 11.327 2.546 17 5-4.277 8.819-9.927 12.497-19 16-3.44.923-6.925 1.641-10.407 2.385-5.22 1.23-7.821 3.031-11.132 7.131-2.506 2.546-5.003 2.413-8.461 2.484.659-3.075 1.539-5.077 3-8l-9 1c1.952-3.904 3.874-6.038 7-9l-5-1 2-4 3.113.141c10.021.316 18.896.035 26.95-6.703C886 882 886 882 888 879" style="fill:#4dac97"/><path d="M919 762c6.568 2.595 10.194 9.648 13.406 15.609 3.868 9.118 4.399 20.537.969 29.891-2.147 4.524-4.862 8.907-8.375 12.5h-2l-.812-3.375C921 813 921 813 918 811l-.812-1.875C916 807 916 807 912.875 805.125L910 803c-.375-3.25-.375-3.25 0-6 2.709-1.354 5.009-1.065 8-1l1 4h9a1571 1571 0 0 0-.437-5.75l-.247-3.234c-.257-2.453-.634-4.655-1.316-7.016h-4v-2l-2.312-.875C917 780 917 780 914 778c-.293-2.383-.293-2.383-.187-5.125l.082-2.758L914 768h2l.938-2.437C918 763 918 763 919 762" style="fill:#e09743"/><path d="M825 742h12l-1 6h-2v4h-2v16l5.375-.312 3.023-.176L843 767l2-3h3v-2h2v-2h4l-.875 1.625c-1.292 2.728-2.211 5.501-3.125 8.375h-2v3c-2.407 2.682-4.93 4.944-7.75 7.188C838 782 838 782 837 784h-3v2c-2.789 1.394-4.921 1.257-8 1-2.43-3.644-2.238-5.222-2.187-9.562l.019-2.034c.157-11.139.693-22.275 1.168-33.404" style="fill:#d79740"/><path d="M743.813 854.875c3.363 1.187 4.003 1.823 6.125 4.5 2.955 3.719 5.39 5.301 10.062 6.625 6.043.682 10.855.503 16-3a785 785 0 0 0 4.5-4.25c4.069-3.7 4.069-3.7 7.75-4.125 2.974 1.487 4.376 3.178 6.336 5.82 2.554 2.808 6.003 4.028 9.414 5.555 3 1.563 3 1.563 5 3v3c-8.363.912-12.541-2.457-18.902-7.512A179 179 0 0 1 786 861l-.562 1.688c-2.968 4.773-8.183 7.606-13.438 9.312-10.478 1.077-17.419-.184-25.5-6.75L744 863c-3.488 1.678-6.665 3.67-9.902 5.781-4.4 2.556-7.813 3.467-12.91 3.344l-2.958-.055L716 872v6h-1v-22h1v11c10.225-.774 16.608-3.097 23.566-10.715C741 855 741 855 743.813 854.875" style="fill:#c9f3f6"/><path d="M895.668 758.598c5.546 3.335 9.365 8.263 11.332 14.402.87 7.336.622 14.013-4 20-4.702 4.958-9.082 8.569-16.051 9.336-7.979.095-13.757-.378-19.695-5.984-6.033-6.626-6.896-12.847-6.621-21.68.505-5.052 1.726-8.14 5.367-11.672 9.379-7.457 18.46-9.362 29.668-4.402m-26.391 7.343c-4.177 5.362-5.741 9.104-5.277 16.059 2.101 6.302 5.174 10.507 10.125 14.875 5.804 2.271 11.774 1.71 17.688.063 5.095-3.098 8.891-7.396 11.187-12.938 1.015-6.285.195-11.056-3.5-16.242-3.609-4.23-7.207-7.438-12.953-7.996-7.452-.198-12.215.483-17.27 6.179" style="fill:#092614"/><path d="M896.563 911.188A126 126 0 0 1 902 915l1.891 1.402c1.422 1.223 1.422 1.223 3.109 3.598 0 4.214-2.286 8.199-4 12h-7v-4h-2c-1.925-5.338-3.399-10.35-4-16l-6-2 .141 2.484.109 3.266.141 3.234C884 922 884 922 882.199 924.332c-3.078 2.335-5.365 2.601-9.199 2.668-3.26-1.062-4.566-2.198-6.195-5.207A114 114 0 0 1 864 915c9.511-8.358 21.277-10.208 32.563-3.812" style="fill:#85a77a"/><path d="M788 958v2h9c-1 3-1 3-2.626 3.967l-2.085.822-2.273.914-2.391.922-2.367.945c-3.068 1.219-6.125 2.386-9.258 3.43v2c-4.232 1.411-8.253 1.191-12.687 1.188l-2.826-.003c-8.187-.071-16.468-.41-24.487-2.185l-1-2 1-2c2.773-.781 2.773-.781 6.375-1.5l3.813-.77c4.931-.944 9.864-1.872 14.812-2.73v-2l7 1v-2c6.783-1.42 13.067-2.227 20-2" style="fill:#f09c46"/><path d="M812 757c1.699 1.16 1.699 1.16 3 3 1.21 8.005.061 15.232-4.289 22.008-2.558 3.378-4.203 4.814-8.273 6.242-3.438-.25-3.438-.25-6.313-2.437-3.473-4.598-3.861-9.101-3.125-14.813 1.908-5.922 5.009-9.419 10-13 3.05-1.525 5.642-1.236 9-1" style="fill:#c4d5a7"/><path d="M813 872c3.735.498 5.812.875 9 3 .555 2.023.555 2.023.875 4.375.641 3.145 1.021 4.495 3.063 7.063 4.486 2.288 9.102 2.902 14.062 3.562v4h-5c1.37 3.161 1.989 3.993 5 6 .188 2.625.188 2.625 0 5-3.485-.645-6.028-2.101-9-4l1.5 2.813C834 907 834 907 834 910c-3.876-.221-4.94-.937-7.687-3.812C824 903 824 903 823.102 900.98c-1.339-2.406-2.753-3.348-5.039-4.855-3.662-2.658-5.647-4.699-7.063-9.125-.44-5.547.249-9.748 2-15" style="fill:#51b09a"/><path d="M741 823c4.429.515 6.703 2.066 10.063 4.938 5.775 4.903 9.364 6.637 16.984 6.515 6.939-1.065 12.764-5.956 17.953-10.453 3.687 1.641 6.679 3.927 9.875 6.375 3.116 2.383 6.22 4.714 9.508 6.852L808 839v1c-5.024.4-7.506-.532-11.625-3.375-6.826-4.646-6.826-4.646-9.375-5.625l-3 1v2q-2.155 1.223-4.312 2.438l-2.426 1.371c-5.54 2.918-11.141 2.861-17.262 2.191-4.898-1.686-8.893-4.085-12.875-7.375C745 831 745 831 743.145 831.215c-2.513.92-4.401 2.176-6.582 3.723-4.445 3.145-8.316 5.375-13.875 5.187L719 840v-7l1 2c7.958-1.675 13.813-4.541 20-10z" style="fill:#d1f4f6"/><path d="M742 891c4.371.24 6.391 1.935 9.438 4.938 5.232 4.826 9.299 6.562 16.562 6.3 7.057-.84 10.989-4.805 15.789-9.691C786 891 786 891 788.539 891.086c2.576.957 4.166 1.97 6.211 3.789l1.797 1.555C798 898 798 898 799 901l-5 2-2.25-2.062C789 899 789 899 787.07 899.195c-3.1 1.205-5.328 3.234-7.875 5.332-6.344 4.256-13.824 4.496-21.195 3.473-5.101-2.27-9.309-5.828-13-10-2.953 1.365-5.343 2.966-7.875 5-5.227 3.968-9.528 5.314-16.125 5l-1-5 3.813-.5c7.146-1.543 13.092-6.405 18.187-11.5" style="fill:#a5e3eb"/><path d="M866 857h2l6 11c5.576 0 5.576 0 8.688-2.062L886 864l2 1-2.062 3.063c-1.865 3.171-1.979 3.701-1.313 7.562L885 879c-4.166 4.583-9.343 7.754-15.668 8.18-2.452.007-4.884-.047-7.332-.18-2.92-9.551-1.649-19.427 2.906-28.121z" style="fill:#de7c4d"/><path d="M966 892c3.875.875 3.875.875 5 2 .099 1.831.13 3.666.125 5.5l.008 3.031C971 905 971 905 970 906c-3.43.06-6.845.02-10.273-.039-1.909-.021-3.818.006-5.727.039-1.537 1.537-1.113 3.116-1.187 5.25-.361 3.473-.839 5.421-3.438 7.813-3.983 2.286-5.859 2.743-10.375 1.937-2.276-1.48-4.018-3.113-6-5h-1l-2 12h-2v4h6v-2h8c-3.116 2.077-5.39 2.749-9 3.625l-3.187.789C927 935 927 935 924 935c2-6 2-6 2.766-7.98 2.333-6.279 2.907-12.355 3.234-19.02l3.367-.262c12.368-1.11 22.579-3.539 30.946-13.488z" style="fill:#5ca68a"/><path d="m800.125 934.375 2.008 1.273c1.819 1.317 3.33 2.719 4.867 4.352-15.004 9.877-35.869 7.271-53 7v-2c8.903-4.143 17.892-7.824 27.188-11l2.715-.953 2.577-.859 2.279-.77c4.39-.819 7.721.599 11.366 2.957" style="fill:#f6eaba"/><path d="M954 905c3.258.242 3.258.242 7.125.875l3.883.617L968 907c1 3 1 3 0 5h-5l-1 5h-2l1 3a482 482 0 0 1-6.574 4.398 112 112 0 0 0-4.196 2.891c-5.186 3.508-10.241 3.101-16.23 2.711v2h-6v-4h2l1-12c3 0 3 0 5.25 2 3.541 2.576 5.458 2.624 9.75 2 2.313-2 2.313-2 4-4h2l-.07-1.898-.055-2.477-.07-2.461C952 907 952 907 954 905" style="fill:#3bb8a0"/><path d="M960.059 864.57c1.941.43 1.941.43 4.441 2.243 2.22 4.717 2.544 9.075 1.5 14.187-2.1 2.933-4.789 4.395-8 6-5.202.518-9.636.62-14.437-1.562-3.586-3.412-6.257-6.618-6.805-11.668-.007-1.925.107-3.85.242-5.77l10-1 1.27 6.836C949 876 949 876 952 878c3.188.125 3.188.125 6 0l2-6h-3l-1 3-4-1c-.889-2.91-1.222-4.453-.062-7.312 2.621-2.145 4.777-2.327 8.121-2.118" style="fill:#4cb09c"/><path d="M853 738c.083 4.833-.047 9.237-1 14h-2v6l-2.812 1.188c-3.447 1.959-4.349 3.41-6.188 6.812h-2v2h-7v-16h2v-4h2v-5l4.813-1.937 2.707-1.09c3.487-1.368 5.658-1.973 9.48-1.973" style="fill:#39ba9f"/><path d="M967 944h1l.563 3.125c1.147 4.194 3.539 5.813 6.882 8.387 2.314 2.214 2.481 4.379 2.555 7.488-4.914 4.622-8.327 4.465-14.816 4.273-3.685-.316-6.729-.987-10.184-2.273 0-2 0-2 2-4l-2.875-1.812C949 957 949 957 947 954a2279 2279 0 0 1 7.375-4l2.117-1.156C961.773 946 961.773 946 964 946l1 3z" style="fill:#908982"/><path d="M825 846c4.201.859 5.702 1.587 8.25 5.125 4.028 7.384 3.936 14.743 3.375 22.875l-.172 2.926q-.21 3.538-.453 7.074c-3.633 1.211-4.662.669-8-1-1.366-2.732-1.128-4.982-1-8l1-1c.072-1.853.084-3.708.063-5.562l-.028-3.067L828 863l-3 9c-4.498-1.687-8.729-3.817-13-6 1.367-3.987 3.152-6.885 6-10h2v-2h2l1 9 2.688-2c3.293-1.989 4.595-2.437 8.312-2l-1-3-8 1z" style="fill:#cd825a"/><path d="M946.688 823.875c4.129 1.403 6.848 3.648 10.164 6.434 3.844 3.026 6.872 4.199 11.863 4.078 6.472-1.096 12.479-5.062 17.285-9.387l2 6c-7.245 6.145-13.102 9.501-22.801 9.254-5.91-.682-10.396-4.017-15.199-7.254-2.367-1.324-2.367-1.324-5-2-2.5 1.266-2.5 1.266-5 3.25-5.284 4.128-9.025 6.039-15.812 5.875l-2.958-.055L919 840v-5l2.563-.227c7.878-.913 12.602-2.452 18.437-7.773 3.626-2.983 3.626-2.983 6.688-3.125" style="fill:#cff4f8"/><path d="M917 877c2.256 3.385 2.268 5.154 1.691 9.125C918 888 918 888 914.938 890L912 891l1 5 5 1-1 7h7v-5c2 3 2 3 3 6-8.031 3.51-16.075 6.908-25 6-3.022-1.28-5.399-3.03-8-5-1.645-.719-3.302-1.416-5-2 4.546-3.599 9.478-7.159 15-9 1.063-1.812 1.063-1.812 2-4l2-4 7 1z" style="fill:#cc7650"/><path d="M914 836c-.838 5.75-5.696 8.578-10 12-3.533 2.573-7.151 4.99-10.812 7.375l-2.811 1.863C880 864.077 880 864.077 876.914 863.84c-2.369-1.04-3.147-2.117-4.539-4.277C870.99 857.45 869.8 855.8 868 854c4.559-2.035 9.132-3.764 13.866-5.347 8.592-2.877 16.804-6.145 24.928-10.163C911.833 836 911.833 836 914 836" style="fill:#c67d58"/><path d="M894.313 717.938 898 718c-.203 1.875-.203 1.875-1 4-2.109 1.125-2.109 1.125-4.75 2-4.09 1.472-6.952 3.114-10.25 6h-2v6h-4l-.812 1.813c-2.14 3.94-3.491 4.963-7.875 6.375L864 745v2l-2.437.375L859 748l-1 2c-1.647-1.647-1.171-3.553-1.187-5.812l-.043-2.645C857 739 857 739 859 735l11 1-.25-4.25c-.188-3.191-.062-4.348 1.926-6.91 2.538-2.009 4.704-2.988 7.762-4.027l2.808-.981c4.074-1.231 7.808-1.967 12.067-1.894" style="fill:#db9744"/><path d="M888 746c6.194-.815 10.905 1.762 16 5 3.026 2.575 4.869 4.798 5.313 8.875L909 762l-2 1c-1.125 2.063-1.125 2.063-2 4l-1-5-2.062.25c-3.465-.295-5.318-1.425-8.192-3.277-4.78-2.663-10.439-2.648-15.746-1.973-5.866 2.019-10.679 4.603-14 10l-1.07 1.699c-2.311 5.718-1.817 13.964-.242 19.887 2.137 4.649 5.213 7.433 9.312 10.414l-3 1-3-2v-2h-2a263 263 0 0 1-3-5l-2-1c-1.29-6.967-2.264-15.209 0-22l-2-1 3-5 4 2 1-4h3l1-3c4.049-3.221 7.301-3.353 12.375-3.25l3.836.047c3.673.197 7.162.622 10.789 1.203v-2l-9-3z" style="fill:#46ac9a"/><path d="M877 762v2h2c1.354 2.709 1.065 5.009 1 8l-2.812.875C874 774 874 774 871 776c-.334 3.006-.534 5.103 0 8 2.547 2.925 5.234 3.477 9 4l1 3 3.188-.125c3.552.116 5.661.597 8.812 2.125l-1 4c-5.626 1.591-11.947 2.463-17.355-.129-4.701-3.378-8.277-7.337-10.395-12.808-.821-6.776-.098-11.438 3.75-17.063 2.728-2.949 4.807-5 9-5" style="fill:#cddfab"/><path d="M923 873v3h2l1.938 6.75 1.089 3.797L929 890l.625 2.156c.454 2.235.471 4.316.438 6.594l-.028 2.422L930 903l-4 1-1-2-1.187 1.5c-2.364 1.956-3.827 1.742-6.813 1.5-.625-2.312-.625-2.312-1-5l2-3-2.375.125C913 897 913 897 911 895c.375-2.625.375-2.625 1-5l6-2-.07-2.773-.055-3.602-.07-3.586c.267-4.165.986-5.039 5.195-5.039" style="fill:#da8750"/><path d="m932 870 .516 1.977c2.205 7.953 4.785 13.818 12.129 18.117 5.52 2.124 11.751 1.504 17.355-.094-5.662 7.704-12.594 12.01-22 14a146 146 0 0 1-5 0l-.551-3.191-.761-4.371-.4-2.307c-.676-3.86-1.392-7.701-2.225-11.529l-.445-2.065a783 783 0 0 0-1.263-5.658L929 872c2-2 2-2 3-2" style="fill:#82b5bc"/><path d="M910.848 793.902 917 794l1 2-8 1c.865 4.496 1.295 6.482 5.063 9.25L918 808l1 3 3 2c2.207 4.742 2.207 4.742 2 8-4.484 7.54-15.865 14.288-24 17l-1-2h3l.043-2.668c.439-10.68.439-10.68 3.145-13.707 2.812-1.625 2.812-1.625 6-1.562C914 819 914 819 916 821c2.125.625 2.125.625 4 1l-1-6h-3l-1-5h-2l-.25-2.375C912 806 912 806 910 804.75l-2-.75-1-1c.086-1.812.086-1.812.375-4l.273-2.187c.474-2.44.696-2.778 3.2-2.911" style="fill:#85a976"/><path d="M988 863c4.556.556 4.556.556 6 2 1.139 15.93-2.103 30.657-6 46l-8-4c.636-3.943 1.874-7.235 3.5-10.875 3.769-8.939 5.056-19.307 2.867-28.898L986 865z" style="fill:#69a9b5"/><path d="m865 916 .332 1.898.481 2.477.457 2.461C867 925 867 925 870 927c1.99.39 3.99.732 6 1-1.315 5.916-2.718 9.605-8 13h-4v3l-8 1c1.25-3.653 1.671-4.781 5-7 .293-2.383.293-2.383.188-5.125l-.083-2.758L861 928h-3c-.441-4.5-.529-6.346 2.375-9.937C863 916 863 916 865 916" style="fill:#38bca6"/><path d="m972 853 1 2h-3v2c-4.245.333-6.355.439-9.937-2L958 853l-1 1a68 68 0 0 1-4.562-.437l-2.504-.309L948 853l.289 2.773.336 3.602.352 3.586L949 866c-2 2-2 2-4.383 2.195l-2.742-.07-2.758-.055L937 868c.361-5.89 1.851-9.723 6-14 9.043-6.696 19.489-6.817 29-1" style="fill:#61aa8c"/><path d="M930 909c.685 9.84-1.602 17.284-6 26 3.318-.876 6.628-1.78 9.938-2.687l2.806-.741c5.65-1.566 10.468-3.539 15.481-6.595C954 924 954 924 956 924c-1.417 3.425-2.898 4.995-6 7-9.345 3.515-19.095 5.942-29.055 6.656C919 938 919 938 916 940c-2.187-.375-2.187-.375-4-1l2.688-1.875c7.036-5.941 8.966-14.749 10.636-23.437.766-3.047 1.303-4.688 4.676-4.688" style="fill:#05241b"/><path d="m884 888 2 1-1 7h-2l-1 3c-1.891.695-1.891.695-4.25 1.125l-2.457.465L873 901l-2.937.688C868 902 868 902 866 901v5l-4 2-2-5h-3c.449-1.482.91-2.961 1.375-4.437l.773-2.497C860 894 860 894 862 893c3.3.074 6.589.173 9.883.391 4.112.122 6.413-.224 9.633-2.907z" style="fill:#35b9a2"/><path d="M795 951v2c-14.967 3.797-29.942 7.5-44.998 10.927a737 737 0 0 0-22.123 5.409C725 970 725 970 722 970l-1 3 1-7 3.448-.366c4.566-.573 8.932-1.619 13.38-2.779l2.513-.639a3436 3436 0 0 0 10.5-2.697c9.674-2.488 19.352-4.857 29.143-6.843l2.521-.518c3.887-.766 7.511-1.373 11.495-1.158" style="fill:#4a1b0a"/><path d="M812 757c1.707 1.137 1.707 1.137 3 3 .328 2.848.328 2.848.25 6.063l-.047 3.222C815 772 815 772 814 774c-1.875-.312-1.875-.312-4-1l-2-3a141 141 0 0 0-7-2c-1.354-.625-2.699-1.272-4-2v3h-2c.084-2.86.568-4.546 2.555-6.633 4.965-4.265 7.656-5.843 14.445-5.367" style="fill:#cadea7"/><path d="M915 853c.885 4.391 1.032 8.287.688 12.75l-.239 3.422C915 872 915 872 913 874v-3l-1.687 2.063L909 875c-2.75-.25-2.75-.25-5-1-.75-2.25-.75-2.25-1-5 1.938-2.312 1.938-2.312 4-4h-5c-.625-1.875-.625-1.875-1-4l2-2c3.625.375 3.625.375 7 1l-.062-2.937c.094-4.61.262-4.063 5.062-4.063" style="fill:#fbd381"/><path d="M912 725c3.572 5.358 3.122 10.766 3 17q-3.124.079-6.25.125l-3.516.07c-3.062-.185-4.676-.587-7.234-2.195-.305-3.356-.37-5.378 1.375-8.312 3.953-2.542 8.008-2.512 12.625-2.688z" style="fill:#97a46d"/><path d="M806 904c2.188 1.563 2.188 1.563 4 4 .25 3.75.25 3.75 0 7-4.295 2.304-8.315 3.782-13 5l-1 5c-2.731-2.731-2.752-4.926-3.102-8.68.193-4.41 2.92-6.948 5.665-10.132 2.395-1.979 4.388-2.188 7.437-2.188" style="fill:#76a177"/><path d="M813 872c3.735.498 5.812.875 9 3 .73 2.383.73 2.383 1.188 5.125l.48 2.758L824 885h-3l-3 11c-3.74-2.657-5.874-4.495-7-9-.358-5.546.249-9.747 2-15" style="fill:#58a98b"/><path d="M855 735c.237 8.267-.187 15.92-2 24 4.875-4.75 4.875-4.75 6-7h2l1-3h2v3h-2l-.312 1.813C861 756 861 756 859.648 757.293c-2.107 2.183-3.301 4.524-4.71 7.207-1.556 2.944-3.089 5.727-4.938 8.5h-2v-3h2l.875-3.312C852 763 852 763 854 760h-4v2h-2v2h-3l-2 4h-4v-2l3-2 1.438-2.562C845 759 845 759 847.188 758.188L849 758l1-6h2l1-14-3-1c3-2 3-2 5-2" style="fill:#7ea771"/><path d="M898 718c5.722-.458 8.494.46 13 4 1 1 1 1 1.063 4.063L912 729l-2.082.332-2.73.481-2.708.457c-2.716.8-3.795 1.483-5.48 3.73-.687 3.188-.687 3.188-1 6h-2c-.312-3.25-.312-3.25 0-7 3.131-3.315 6.893-5.09 11-7v-2c-2.375-.625-2.375-.625-5-1l-2 2c-1.988.527-1.988.527-4.312.938-5.187 1.065-9.238 2.922-12.688 7.062l-1 3h-2c-.5-2.625-.5-2.625 0-6 4.143-4.607 9.317-6.775 15.215-8.262L897 721z" style="fill:#51ae8f"/><path d="M910 779c3.802.4 5.455 1.223 8 4l3 1v2h2v9l-3-1a102 102 0 0 0-5.937-.25l-3.153-.078c-3.227.364-4.547 1.164-6.91 3.328 1.875-4.875 1.875-4.875 3-6 .37-1.826.697-3.661 1-5.5.889-5.389.889-5.389 2-6.5" style="fill:#39bda5"/><path d="M912 890h8l-1 6h2v-2l6 1 1-3c2 2 2 2 2.195 4.164l-.07 2.461-.055 2.477L930 903l-4 1-1-2-1.187 1.5c-2.364 1.956-3.827 1.742-6.813 1.5-.625-2.312-.625-2.312-1-5l2-3-2.375.125C913 897 913 897 911 895c.375-2.625.375-2.625 1-5" style="fill:#f7ce7b"/><path d="M881 773c1.938 1 1.938 1 3 3 .527 3.561.629 6.741-1 10-3.262 1.631-6.436 1.52-10 1-2-1-2-1-3-3-.454-2.761-.505-5.244 0-8 2.939-3.762 6.492-3.492 11-3" style="fill:#10180b"/><path d="M985 917c2 3 2 3 2 6-3.674 1.176-7.169 1.074-11 1v2h-2v2l-6 1v2l-9 2-1-2c3.509-3.922 6.068-5.392 11-7a83 83 0 0 0 3-4h3l1-2c3.043-1.522 5.654-1.239 9-1" style="fill:#ee9746"/><path d="M880 908v15c-7 1-7 1-9.812-.75-4.188-4.307-4.188-4.307-4.188-7.187 1.54-3.176 4.006-4.327 7-6.063 3-1 3-1 7-1" style="fill:#f09038"/><path d="m898 844-1 5c-3.75 1.125-3.75 1.125-6 0l.375 2.25L891 854c-2.937 2.188-2.937 2.188-6 4l-1 2h-4v2c-2.375-.625-2.375-.625-5-2-1.312-3.125-1.312-3.125-2-6 3.135-1.858 5.375-2.201 9-2l1 2 .938-2.75c3.139-4.946 8.198-7.25 14.062-7.25" style="fill:#e77344"/><path d="M950 906c.615 7.992.615 7.992-1.562 11.563-3.393 2-5.565 1.99-9.438 1.437-3.146-2.153-3.869-3.486-4.812-7.187L934 909c1.787-1.787 4.455-1.671 6.875-2.062l3.242-.536C947 906 947 906 950 906" style="fill:#b59c61"/><path d="m886 864 2 1-2.062 3.063c-1.865 3.171-1.979 3.701-1.313 7.562L885 879c-4.166 4.583-9.343 7.754-15.668 8.18-2.452.007-4.884-.047-7.332-.18-1.266-3.867-1.112-7.732-1.062-11.75l.013-2.113q.02-2.57.049-5.137h1l.262 2.703.426 3.547.386 3.516c1.128 3.938 2.536 5.047 5.926 7.234l2 1v-3l1.938-.375L875 882l1-2h6v-10l-9 1 1-3 2.063.25c3.006-.256 4.117-.786 6.625-2.312z" style="fill:#bf7855"/><path d="M907 894h2v2l9 1c-.875 8.875-.875 8.875-2 10-2.016.234-4.038.413-6.062.563l-3.348.253L904 908l1-3-5-2a331 331 0 0 1 2.375-3.5l1.336-1.969L905 896h2z" style="fill:#e5723c"/><path d="M857 922h1c1.573 5.733 2.243 10.157 1 16-6.625 1.25-6.625 1.25-10-1-2.262-.195-2.262-.195-4.687-.125l-2.45.055L840 937a832 832 0 0 1 6.25-4.125c3.713-2.631 6.484-5.803 9.367-9.301z" style="fill:#6da680"/><path d="m896 881 9 3c-3.475 6.951-7.093 10.674-14 14h-3a740 740 0 0 1-.062-4.937l-.036-2.778C888 888 888 888 889 887c1.853-.072 3.708-.084 5.563-.062l3.066.027L900 887c-1-2-1-2-4-3z" style="fill:#6da685"/><path d="m932 870 .516 1.977c2.3 8.297 4.978 13.588 12.484 18.023-2.51 2.6-4.986 4.991-8 7h-2l-1 2-.332-2.098c-.758-4.677-1.527-9.338-2.539-13.968l-.44-2.045a878 878 0 0 0-1.298-5.834L929 872c2-2 2-2 3-2" style="fill:#6da6ac"/><path d="M814.125 923.688C818 924 818 924 819 925c.072 2.02.084 4.042.063 6.063l-.028 3.347L819 937a515 515 0 0 1-4.812-.875l-2.708-.492C809 935 809 935 806 933c.792-5.699 1.948-9.224 8.125-9.312" style="fill:#c89952"/><path d="M825 742h12l-1 6h-2v4h-2l1-9h-6v41h7v2c-2.789 1.394-4.921 1.257-8 1-2.43-3.644-2.238-5.222-2.187-9.562l.019-2.034c.157-11.139.693-22.275 1.168-33.404" style="fill:#a7a366"/><path d="M964 946c.875 2 .875 2 1 5a45.9 45.9 0 0 1-7 9c-3.312-.125-3.312-.125-7-1-2.23-2.555-2.23-2.555-4-5a2279 2279 0 0 1 7.375-4l2.117-1.156C961.773 946 961.773 946 964 946" style="fill:#d47a39"/><path d="M827 743h6l-1 25c-3-1-3-1-4-3l-1 7h-1z" style="fill:#d19a4b"/><path d="M805.563 768.5c2.437.5 2.437.5 4.312 2.125 1.528 3.226 1.133 4.992.125 8.375-1.25 1.875-1.25 1.875-3 3-2.855.428-4.345.407-6.812-1.125-1.766-2.788-1.65-4.642-1.188-7.875 2.007-2.825 3.149-3.834 6.563-4.5" style="fill:#121c0a"/><path d="M888 746c6.194-.815 10.905 1.762 16 5 3.026 2.575 4.869 4.798 5.313 8.875L909 762h-3c-1.359-1.426-1.359-1.426-2.75-3.312-2.992-3.673-5.714-5.149-10.25-6.688l-3.437-1.187L887 750z" style="fill:#117a6d"/><path d="M899 860c1.664 4.881 3 8.831 3 14l2 2c-4.714-.479-8.666-.968-13-3 .598-4.188 1.441-8.057 3-12 2-1 2-1 5-1" style="fill:#ea7241"/><path d="M973 880h6c.333 6.816.242 11.921-3 18-1.937-.5-1.937-.5-4-2-.971-3.419-1.618-6.764 0-10h-2v-2h2z" style="fill:#3cbea5"/><path d="M822 889c3.345.182 6.011.426 8.938 2.125 1.646 2.906 1.247 5.613 1.062 8.875l-5 2-2.312-2.437C822 897 822 897 819 896c.75-4.75.75-4.75 3-7" style="fill:#35bfa6"/><path d="M826.188 921.375 828 922v2l1.715.332 2.223.481 2.214.457L836 926l1 3-15 5-1-11c3-2 3-2 5.188-1.625" style="fill:#37b5a2"/><path d="M778 802q2.409.426 4.813.875l2.707.492C788 804 788 804 791 806l-7 1c.477 4.294 2.974 6.109 6 9a271 271 0 0 1 4.473 5.449c1.698 1.725 3.368 2.496 5.527 3.551l1 2a78 78 0 0 0 5 2l-1 3c-23.76-15.873-23.76-15.873-26.687-27.801z" style="fill:#4ba493"/><path d="M848 739v2c-2.7 1.902-5.373 3.678-8.312 5.188-2.474 2.657-2.312 5.316-2.512 8.851C837 757 837 757 836 758a102 102 0 0 0-.562 5.063l-.254 2.785L835 768h-3v-16h2v-4h2v-5q2.435-1.006 4.875-2l2.742-1.125C846 739 846 739 848 739" style="fill:#58ae8a"/><path d="M905 836v3c-5.75 3-5.75 3-8 3v2c-6.235 2.908-11.661 4.465-18.555 4.727C876 849 876 849 873.93 850.086c-2.427 1.15-3.424.657-5.93-.086l1.73-.69q7.33-2.928 14.645-5.888L891 840.75l3.426-1.391 3.262-1.312 2.949-1.193C903 836 903 836 905 836" style="fill:#0c2112"/><path d="M913 845c2.617 2.303 3.769 4.399 5.008 7.641l1.051 2.746 1.066 2.863 1.09 2.816c1.891 5.007 3.299 9.599 3.785 14.934h-2v-3l-5 2-.148-2.992-.227-3.883-.211-3.867C917 861 917 861 915 859c-.414-2.602-.414-2.602-.625-5.625l-.227-3.039L914 848l-4-1z" style="fill:#b87857"/><path d="M870.188 871.375 872 872v4l1.938.313L876 877l1 3-2 3h-4v3c-2.437-.75-2.437-.75-5-2-.937-2-.937-2-1-4l2-2-2-2v-3c3-2 3-2 5.188-1.625" style="fill:#fcd07a"/><path d="M848 773c.27 2.734.27 2.734 0 6-1.863 2.266-1.863 2.266-4.312 4.25l-2.426 2.016c-3.476 2.665-5.386 4.002-9.762 3.922l-2.344-.02C827 789 827 789 824 788l1-4 1 2h8v-2h3l.688-1.687c1.676-2.955 3.858-4.981 6.312-7.313 2-2 2-2 4-2" style="fill:#65ae7f"/><path d="M976 864h5c2.271 5.395 2.204 10.262 2 16h-7z" style="fill:#c19b5a"/><path d="M828 862h1q.039 2.968.063 5.938l.035 3.339C829 874 829 874 828 875a59 59 0 0 0-.062 4.063L828 883h-2l-.516-1.934-.734-2.503-.703-2.497C823 874 823 874 820.891 873.215L819 873v-2h-7v-4c5.281.515 8.572 2.255 13 5l.375-3.312C826 865 826 865 828 862" style="fill:#2e1106"/><path d="M919 762c4.55 1.517 6.501 5.169 9 9l-4-1v-2h-2v-2h-3c-1.176 2.976-1.988 5.475-2.062 8.688 1.625 3.538 4.575 3.88 8.062 5.312.938 2.188.938 2.188 1 4h-4v-2l-2.312-.875C917 780 917 780 914 778c-.293-2.383-.293-2.383-.187-5.125l.082-2.758L914 768h2l.938-2.437C918 763 918 763 919 762" style="fill:#c09e5b"/><path d="M926 910c-.409 6.762-1.57 12.672-4 19h-1l1-14-3.812 1.063c-3.135.873-3.971 1.009-7.188-.063v2l-4-2v-2l2.957-.621a4224 4224 0 0 1 7.688-1.625C925.451 910 925.451 910 926 910" style="fill:#4ea493"/><path d="M964 952q1.731 1.36 3.438 2.75l1.933 1.547c1.826 1.909 2.328 3.1 2.629 5.703-1.561 1.561-3.09 1.17-5.25 1.188-3.675-.03-6.435-.477-9.75-2.188a2874 2874 0 0 1 2.938-3.937l1.652-2.215C963 953 963 953 964 952" style="fill:#e7c1a5"/><path d="M806 879h1l.262 2.598c.889 7.235 1.879 11.904 6.738 17.402l-15 2-3-5h3l2-2v2h4l-.035-2.195c-.047-5.053-.039-9.839 1.035-14.805" style="fill:#63a2a7"/><path d="M819 744h4q.039 2.438.063 4.875l.035 2.742C823 754 823 754 822 756l-6-2v-2h-6l2-5 7-1z" style="fill:#3fbea6"/><path d="m789 774 2 11c-3-1-3-1-5-3-3.123 4.401-4.036 8.795-5 14l5 2v2l-9-2c.618-4.48 5.97-24 12-24" style="fill:#51a595"/><path d="M891 905c3.373.397 4.9.917 7.563 3.125 5.929 3.234 12.075 1.716 18.437.125a144 144 0 0 0 7-2.25c-1.503 3.007-4.042 3.583-7 5l-1 1c-2.353.073-4.708.084-7.062.063l-3.911-.028L902 912v3c-3.594-1.335-6.922-2.691-10-5-.812-2.687-.812-2.687-1-5" style="fill:#371106"/><path d="M840.375 842.688c3.711.319 4.997.79 7.625 3.312l-1 5h-8l1 5h2l.375 1.938L843 860l2 1-5 2-.84-2.555-1.097-3.32-1.09-3.305C836 851 836 851 835 849h10l-1-2c-2.066-.633-2.066-.633-4.562-1.125l-2.504-.508L835 845c2-2 2-2 5.375-2.312" style="fill:#48a793"/><path d="M801.625 906.063C804 907 804 907 806 910v5l-12 2c.292-3.791.545-6.351 2.75-9.5 2.25-1.5 2.25-1.5 4.875-1.437" style="fill:#d3964f"/><path d="M914 778c2.972 1.125 5.334 2.223 8 4v2h4c2.143 3.477 2.213 6.212 2.125 10.25l-.055 3.266L928 800h-9l-1-4 1.813.938C922 798 922 798 925 799v-11h-2v-2h-2v-2l-1.812-.312c-2.501-.786-3.563-1.657-5.188-3.688z" style="fill:#7daa74"/><path d="M792 806c14.686 2.908 29.348 5.927 44 9v1c-5.496.203-10.349.109-15.68-1.434-3.042-.742-6.089-1.104-9.195-1.503-6.572-.891-13.144-2.073-19.125-5.063z" style="fill:#49a994"/><path d="M917 804h13v5h-2v5c-2.312.25-2.312.25-5 0-2.48-2.48-3-3.445-3-7h-2z" style="fill:#f19232"/><path d="m801 936 6 3c-5.504 4.445-10.806 6.496-17.812 7.188l-2.285.243c-10.93 1.023-21.94.742-32.903.569v-1l3.891-.148c9.395-.387 18.751-.91 28.109-1.852l2.513-.251c3.878-.409 7.677-.889 11.487-1.749v-2h2z" style="fill:#fadb9e"/><path d="M965 893c3 1 3 1 4 3 .125 3.563.125 3.563 0 7-1 1-1 1-4.875 1.25-3.828-.027-3.828-.027-6.125-1.75l-1-1.5 2.313-1.75c2.349-1.967 3.98-3.735 5.687-6.25" style="fill:#d29853"/><path d="M942 855h2c2.29 3.435 2.178 4.985 2 9h-2v4h-7c.433-5.407 1.582-8.754 5-13" style="fill:#b9985e"/><path d="m898 844-1 5c-3.75 1.125-3.75 1.125-6 0v5l-4 2-3-2c.188-2.312.188-2.312 1-5 3.874-2.906 8.127-5 13-5" style="fill:#f5d289"/><path d="M899 838c-2.608 1.739-4.671 2.729-7.57 3.805l-2.719 1.019-2.836 1.051c-7.422 2.757-14.786 5.58-21.875 9.125v-5l2.438-.375L869 847l1-2c2.362-.542 4.675-.984 7.063-1.375 4.44-.79 8.514-1.61 12.5-3.812 3.552-1.874 5.495-2.207 9.437-1.813" style="fill:#4ba694"/><path d="M880 908v15c-7 1-7 1-9.812-.75-4.188-4.307-4.188-4.307-4.188-7.187 1.54-3.176 4.006-4.327 7-6.063 3-1 3-1 7-1m-11 4c-.325 3.578-.43 5.395 1.688 8.375C873 922 873 922 878 922v-12c-3.796 0-5.629.502-9 2" style="fill:#cc9851"/><path d="M914 733v6h-12l-1-4c4.881-2.44 7.527-3.468 13-2" style="fill:#dc9845"/><path d="m898 740 1.578.465c3.055.675 6.052.879 9.172 1.098l3.547.253L915 742l.805 3.359 1.07 4.391.527 2.211c.877 3.572 1.725 6.833 3.598 10.039l-1.937 1.875C917 766 917 766 916 768h-2l.938-1.687c1.175-2.558 1.856-4.497 2.062-7.313l-1.437-2.25c-2.213-3.893-1.821-7.37-1.563-11.75h-2v-2l-2.555.035-3.32.028-3.305.035C900 743 900 743 898 742z" style="fill:#58a88b"/><path d="m896 915 6 2c1.231 6.4 1.231 6.4.063 9.438L901 928h-5z" style="fill:#e7963f"/><path d="m791 901 4 2-1.094 1.328c-4.426 6.049-4.639 11.338-3.906 18.672.298 1.342.617 2.68 1 4l-3 1c-2.723-10.721-2.032-17.061 3-27" style="fill:#589ca7"/><path d="M876 736h4c-1.042 4.479-2.517 7.127-6.203 9.965-3.12 1.797-6.275 2.367-9.797 3.035v-4l1.609-.699c4.712-2.176 7.169-4.159 10.391-8.301" style="fill:#78ab75"/><path d="M882 936c1 2 1 2 0 5 3.229.058 6.458.094 9.688.125l2.763.051c4.686.034 8.264-.066 12.549-2.176 2.813-.125 2.813-.125 5 0-7.01 5.932-15.253 5.673-24 5-3.209-.745-5.944-1.735-9-3 1.875-3.875 1.875-3.875 3-5" style="fill:#4da795"/><path d="M960 849c9.595 1.558 9.595 1.558 13 6h-3v2c-6.625.25-6.625.25-10-2-.187-3.125-.187-3.125 0-6" style="fill:#bca268"/><path d="M825 846c3.021.618 5.297 1.158 7.324 3.586 1.114 1.852 1.114 1.852 2.676 5.414l-1 3-1-2-8 1z" style="fill:#b7735e"/><path d="m825 788 10 1-2 1 2.063 1.75L837 794c-.25 2.25-.25 2.25-1 4h-2v2h-5l1-9-5-2z" style="fill:#29856e"/><path d="m898 718 3 1c-1.375 2-1.375 2-3 4h-2v2l-1.828.734c-8.214 3.445-8.214 3.445-11.172 7.266l-1 3h-2c-.5-2.625-.5-2.625 0-6 4.143-4.607 9.317-6.775 15.215-8.262L897 721z" style="fill:#8da971"/><path d="M857 870h1v16c-7 3-7 3-10 3l2-5-2-1 2-3h4v3l2-1c.414-2.723.414-2.723.625-6.062l.227-3.348z" style="fill:#aad0c6"/><path d="M915 853c.915 4.462.978 8.345.563 12.875l-.309 3.492L915 872h-1l-1-6h-2l1-4-3-1c1.018-8 1.018-8 6-8" style="fill:#eac275"/><path d="M909 822c4.556.556 4.556.556 6 2 .438 2.313.438 2.313 0 5-3 2.313-3 2.313-6 4l-2-1c-.195-6.055-.195-6.055 0-8z" style="fill:#dc9e50"/><path d="m881 724-1 4h-2v5h-2l-1 2-3 1v-10c3.371-1.498 5.204-2 9-2" style="fill:#ea9035"/><path d="M941 793c4.752.432 6.92 1.328 10 5l-1 2c-2.285.633-2.285.633-5.062 1.125l-2.786.508L940 802c-.125-6.75-.125-6.75 1-9" style="fill:#d8f4f6"/><path d="m880.125 942.938 2.195.589L884 944v2h25c-10.069 5.034-19.958 3.406-30.348.07C876 945 876 945 874 943c2.547-1.274 3.428-.802 6.125-.062" style="fill:#3a200b"/><path d="M834 871c.813 2.688.813 2.688 1 6-2.437 2.875-2.437 2.875-5 5l-3-1c-.178-3.906-.207-6.689 2-10 2-1 2-1 5 0" style="fill:#f1d08a"/><path d="m794 953-1 3c-3.416.673-6.833 1.337-10.25 2l-2.934.578-2.832.547-2.602.508C772 960 772 960 768 960v2l-7-1v-1l2.323-.535 10.427-2.402 3.656-.842 3.516-.811 3.237-.746c1.684-.393 3.364-.804 5.033-1.252C791 953 791 953 794 953" style="fill:#d49561"/><path d="M948 909q.063 3 0 6c-1 1-1 1-4.375 1.313C940 916 940 916 938.063 914.125 937 912 937 912 937 910c3.735-.575 7.213-1 11-1" style="fill:#e5923b"/><path d="M890 888c3.947-.179 6.598-.094 10 2-1.37 3.161-1.989 3.993-5 6-2.687.125-2.687.125-5 0z" style="fill:#c29d59"/><path d="M852 927q2.514.428 5 1v9c-2.312.25-2.312.25-5 0-1.937-1.687-1.937-1.687-3-4 .668-2.393 1.221-4.221 3-6" style="fill:#c59e57"/><path d="M812 882q3-.063 6 0c1 1 1 1 1.063 3.563L819 888l-3 1v5c-2-1.5-2-1.5-4-4-.358-2.759-.187-5.201 0-8" style="fill:#ba9f61"/><path d="M964 946c.625 2.375.625 2.375 1 5l-2 2-1-3-9 4v5c-3.161-1.37-3.993-1.989-6-5a2279 2279 0 0 1 7.375-4l2.117-1.156C961.773 946 961.773 946 964 946" style="fill:#ad714b"/><path d="M966 892c3.875.875 3.875.875 5 2 .099 1.831.13 3.666.125 5.5l.008 3.031C971 905 971 905 970 906c-1.6.125-3.207.176-4.812.188l-2.645.042c-2.652-.24-4.268-.888-6.543-2.23v-2l1.5.5c3.534.707 6.897.56 10.5.5v-9h-2z" style="fill:#8eab77"/><path d="M923 883h4c1.354 2.709 1.065 5.009 1 8l-5 2c-2.624-3.061-3-3.732-3-8h3z" style="fill:#f8d688"/><path d="M938 782c3.817 6.053 2.748 15.45 1.324 22.207-.696 2.306-1.439 4.554-2.324 6.793l-2-1 .402-2.062c1.574-8.636 2.176-17.188 2.598-25.938" style="fill:#132121"/><path d="M976 859v7c-2.187.813-2.187.813-5 1-2.812-2.312-2.812-2.312-5-5v-2c3.473-1.158 6.361-1.069 10-1" style="fill:#3eb99c"/><path d="M925 876h2l.586 2.266.789 2.984.773 2.953C930 887 930 887 931.125 888.938c1.288 3.036.825 5.56.5 8.812l-.336 3.547L931 904h-2l-1 3-3-2 5-2c-1.286-9.105-2.983-18.031-5-27" style="fill:#3a2710"/><path d="M870 725c1.26 2.521.919 3.854.563 6.625l-.309 2.477L870 736h-6v-8z" style="fill:#7ca372"/><path d="m905 919 2 1c-.665 4.389-2.188 7.981-4 12h-7v-4h5l1-4h3z" style="fill:#8ca774"/><path d="M912 808c3.362 1.441 5.592 3.248 8 6v2h2l2 5c-1.25 1.5-1.25 1.5-3 3h-4v-2h3l-1-6h-3l-1-5h-2z" style="fill:#5bac86"/><path d="M865 914c3 3.75 3 3.75 3 6l1.938.938C872 922 872 922 873 923q3.5.062 7 0v3c-3.58.772-6.165 1.272-9.687.125-3.387-3.112-4.718-6.874-6.313-11.125z" style="fill:#84a673"/><path d="m942 892 2 1-2 3h5l-3 2q-2.696 1.98-5.379 3.977C937 903 937 903 935 903c-.437-2.687-.437-2.687 0-6 2.111-2.048 4.459-3.535 7-5" style="fill:#a0d8e2"/><path d="m810.688 803.375 3.011.336L816 804v2h8l-1 3c-7.156-.702-14.019-2.308-21-4 3.549-2.366 4.576-2.109 8.688-1.625" style="fill:#41a18e"/><path d="M895 880h10c2.168 4.336 2.273 5.495 1 10l-3 2-3-1 5-7-10-3z" style="fill:#08180e"/><path d="M928 772c4.604 4.076 6.662 10.019 7.176 16.078.164 4.648.034 9.278-.176 13.922h-1l-.12-1.681c-.191-2.525-.41-5.046-.63-7.569l-.187-2.645c-.474-5.166-.94-7.647-5.063-11.105-.25-3.75-.25-3.75 0-7" style="fill:#cc9559"/><path d="M742 966v2h-6v5l-10-1c2-4 2-4 4.242-4.828l2.633-.422 2.617-.453C738 966 738 966 742 966" style="fill:#e0a46a"/></svg>